<svg width="648" height="64" viewBox="0 0 648 64" fill="none" xmlns="http://www.w3.org/2000/svg">
<path d="M63.1638 59.92L87.0838 1.28L111.004 59.92H102.284L100.524 55.28H73.7238L71.8838 59.92H63.1638ZM76.6038 47.84H97.5638L87.0838 20.96L76.6038 47.84ZM130.113 23.12V60.16H122.033V0.399995L159.953 45.76V1.44H168.033V60.16H160.193L130.113 23.12ZM179.104 60V1.36H187.664V60H179.104ZM228.756 41.76L248.036 1.36L258.916 60.08H250.196L244.516 27.52L228.756 61.12L213.076 27.52L207.396 60.08H198.676L209.556 1.36L228.756 41.76ZM269.967 59.92L293.887 1.28L317.807 59.92H309.087L307.327 55.28H280.527L278.687 59.92H269.967ZM283.407 47.84H304.367L293.887 20.96L283.407 47.84ZM367.236 60V1.36H401.396V9.6H375.796V17.68V25.04V29.6H397.636V37.6H375.796V45.92V60H367.236ZM412.432 60V1.36H420.992V60H412.432ZM440.564 1.36V51.68H464.484V60.08H432.004V1.36H440.564ZM505.641 41.76L524.921 1.36L535.801 60.08H527.081L521.401 27.52L505.641 61.12L489.961 27.52L484.281 60.08H475.561L486.441 1.36L505.641 41.76ZM579.011 30.8C579.385 31.0667 579.731 31.3867 580.051 31.76C580.371 32.08 580.665 32.4 580.931 32.72C582.158 34.2667 583.118 35.9733 583.811 37.84C584.505 39.6533 584.851 41.5733 584.851 43.6C584.851 44.08 584.825 44.4533 584.771 44.72C584.611 47.7067 583.705 50.4 582.051 52.8C580.558 55.04 578.638 56.8267 576.291 58.16C573.945 59.44 571.331 60.08 568.451 60.08H563.171C560.291 60.08 557.678 59.44 555.331 58.16C552.985 56.8267 551.065 55.04 549.571 52.8C549.145 52.16 548.718 51.4133 548.291 50.56L555.731 44.8C555.891 45.8133 556.211 46.7733 556.691 47.68C557.225 48.5333 557.865 49.3067 558.611 50C559.358 50.64 560.211 51.1467 561.171 51.52C562.131 51.8933 563.145 52.08 564.211 52.08H567.411C569.598 52.08 571.491 51.3867 573.091 50C574.691 48.56 575.651 46.8 575.971 44.72C575.971 44.5067 575.971 44.2933 575.971 44.08C576.025 43.8667 576.051 43.6533 576.051 43.44C576.051 42.2667 575.838 41.1733 575.411 40.16C574.985 39.1467 574.398 38.2667 573.651 37.52C572.905 36.72 572.025 36.08 571.011 35.6C569.998 35.12 568.931 34.8533 567.811 34.8H563.251H562.931C560.958 34.7467 559.091 34.3733 557.331 33.68C555.625 32.9333 554.078 31.9467 552.691 30.72C551.945 30.1867 551.305 29.5467 550.771 28.8C549.545 27.2533 548.585 25.5733 547.891 23.76C547.198 21.8933 546.851 19.9467 546.851 17.92V16.8C547.118 13.76 548.051 11.0667 549.651 8.72C551.145 6.48 553.065 4.72 555.411 3.44C557.758 2.10666 560.371 1.44 563.251 1.44H568.451C571.331 1.44 573.945 2.10666 576.291 3.44C578.691 4.72 580.638 6.48 582.131 8.72C582.291 8.98666 582.451 9.28 582.611 9.6C582.825 9.92 583.011 10.2133 583.171 10.48L575.891 16.16C575.411 14.24 574.398 12.64 572.851 11.36C571.305 10.08 569.518 9.44 567.491 9.44H564.291C563.225 9.44 562.185 9.62667 561.171 10C560.211 10.3733 559.358 10.9067 558.611 11.6C557.865 12.24 557.225 13.0133 556.691 13.92C556.211 14.8267 555.891 15.7867 555.731 16.8C555.678 17.0133 555.651 17.2267 555.651 17.44C555.651 17.6533 555.651 17.8667 555.651 18.08C555.651 19.2533 555.865 20.3467 556.291 21.36C556.718 22.3733 557.305 23.28 558.051 24.08C558.798 24.8267 559.678 25.44 560.691 25.92C561.705 26.4 562.771 26.6667 563.891 26.72H568.451H568.771C570.745 26.7733 572.585 27.1733 574.291 27.92C576.051 28.6133 577.625 29.5733 579.011 30.8Z" fill="white"/>
</svg>
