<svg width="198" height="111" viewBox="0 0 198 111" fill="none" xmlns="http://www.w3.org/2000/svg">
<path d="M175.096 36.3834L158.565 76.775H164.588L165.856 73.5786H184.377L185.594 76.775H191.627L175.096 36.3834ZM167.846 68.3986L175.096 49.8781L182.335 68.3986H167.846ZM142.302 36.445L128.978 64.267L115.717 36.445L108.199 76.8881H114.232L118.15 54.462L128.978 77.5973L139.868 54.4517L143.798 76.8778H149.82L142.302 36.445ZM93.5447 36.445V76.8367H99.4641V36.445H93.5447ZM79.2207 36.4964V67.0214L53.0166 35.777V76.9395H58.5957V51.43L79.3857 76.9395H84.81V36.4964H79.2207Z" fill="url(#paint0_linear_361_34)"/>
<path d="M13.5503 51.5534C13.5709 51.7178 13.4471 51.872 13.2821 51.8925C13.1171 51.9131 12.9624 51.7897 12.9418 51.6253C12.9212 51.4608 13.0449 51.3067 13.2099 51.2861C13.3749 51.2656 13.5296 51.3889 13.5503 51.5534ZM14.2412 53.9481C14.2309 53.8659 14.1896 53.7939 14.1278 53.7425C14.169 53.6397 14.1381 53.5267 14.0453 53.465C13.9421 53.4034 13.8081 53.4445 13.7462 53.5472C13.7049 53.6089 13.7153 53.6809 13.7359 53.7425C13.6534 53.8042 13.6121 53.907 13.6224 54.02C13.6431 54.1845 13.7978 54.3078 13.9628 54.2872C14.1381 54.277 14.2618 54.1228 14.2412 53.9481ZM12.8181 56.8156C13.0037 56.795 13.1274 56.6306 13.1068 56.4456C13.0862 56.2606 12.9212 56.1372 12.7356 56.1578C12.5499 56.1784 12.4262 56.3428 12.4468 56.5278C12.4674 56.7128 12.6324 56.8361 12.8181 56.8156ZM11.5393 49.8061C11.7249 49.7856 11.859 49.6108 11.8384 49.4258C11.8178 49.2408 11.6424 49.1072 11.4568 49.1278C11.2712 49.1483 11.1371 49.3231 11.1578 49.5081C11.1784 49.6931 11.3537 49.8267 11.5393 49.8061ZM11.199 50.8339C11.3949 50.8134 11.529 50.6386 11.5084 50.4433C11.4878 50.2481 11.3124 50.1145 11.1165 50.135C10.9206 50.1556 10.7865 50.3303 10.8071 50.5256C10.8278 50.7208 11.0031 50.8545 11.199 50.8339ZM16.5718 52.2831C16.6028 52.54 16.8399 52.725 17.0978 52.6942C17.3556 52.6634 17.5412 52.427 17.5103 52.17C17.4793 51.9131 17.2421 51.7281 16.9843 51.7589C16.7265 51.7897 16.5409 52.0261 16.5718 52.2831ZM15.0043 53.7117C14.7156 53.7425 14.5093 54.0097 14.5403 54.2975C14.5712 54.5853 14.8393 54.7908 15.1281 54.76C15.4168 54.7292 15.6231 54.462 15.5921 54.1742C15.5612 53.8864 15.2931 53.6808 15.0043 53.7117ZM19.8306 43.4236C19.8718 43.7628 20.1812 44.0095 20.5318 43.9683C20.8721 43.9272 21.1196 43.6189 21.0784 43.2695C21.0371 42.9303 20.7278 42.6836 20.3771 42.7247C20.0368 42.7659 19.7893 43.0845 19.8306 43.4236ZM20.0162 41.7997C20.2121 41.7792 20.3462 41.6045 20.3256 41.4092C20.3049 41.2139 20.1296 41.0803 19.9337 41.1008C19.7378 41.1214 19.6037 41.2961 19.6243 41.4914C19.6553 41.6867 19.8306 41.8203 20.0162 41.7997ZM23.409 38.7781C23.6153 38.7575 23.7596 38.5725 23.7287 38.367C23.7081 38.1614 23.5224 38.0175 23.3162 38.0484C23.1099 38.0689 22.9656 38.2539 22.9965 38.4595C23.0171 38.6547 23.2028 38.7986 23.409 38.7781ZM20.6968 51.8822C20.6762 51.6767 20.4803 51.5225 20.274 51.5534C20.0678 51.5739 19.9131 51.7692 19.944 51.9747C19.9646 52.1803 20.1606 52.3345 20.3668 52.3036C20.5731 52.2728 20.7278 52.0878 20.6968 51.8822ZM17.9949 50.5256C18.2631 50.4947 18.459 50.2481 18.4281 49.9808C18.3971 49.7136 18.1496 49.5184 17.8815 49.5492C17.6134 49.58 17.4174 49.8267 17.4484 50.0939C17.4793 50.3611 17.7268 50.5564 17.9949 50.5256ZM20.3874 54.3386C20.6143 54.5134 20.9443 54.4825 21.1299 54.2564C21.1918 54.1845 21.2228 54.1022 21.2331 54.02L21.2434 54.0303C21.4187 54.1742 21.6765 54.1433 21.8209 53.9686C21.9653 53.7939 21.9343 53.537 21.759 53.3931C21.5837 53.2492 21.3259 53.28 21.1815 53.4547C21.1506 53.4958 21.1299 53.537 21.1093 53.5781C21.0887 53.5575 21.0681 53.537 21.0474 53.5164C20.8206 53.3417 20.4906 53.3725 20.3049 53.5986C20.1193 53.835 20.1606 54.1639 20.3874 54.3386ZM18.9231 52.9306C18.7993 53.095 18.8199 53.3211 18.9849 53.4547C19.1499 53.5781 19.3768 53.5575 19.5109 53.3931C19.6346 53.2286 19.614 53.0025 19.449 52.8689C19.2943 52.7353 19.0571 52.7661 18.9231 52.9306ZM22.2643 50.2789C22.0993 50.4947 22.1303 50.8031 22.3468 50.9675C22.3674 50.9881 22.3984 50.9983 22.419 51.0086C22.3468 51.0292 22.2849 51.0703 22.2334 51.132C22.1096 51.2861 22.1406 51.502 22.2849 51.615C22.4396 51.7384 22.6562 51.7075 22.7696 51.5636C22.8934 51.4095 22.8624 51.1936 22.7181 51.0806C22.7181 51.0806 22.7078 51.0806 22.7078 51.0703C22.8315 51.06 22.9553 50.9984 23.0378 50.8853C23.2028 50.6695 23.1718 50.3611 22.9553 50.1967C22.7387 50.0322 22.4293 50.0631 22.2643 50.2789ZM24.9765 47.7403C24.7393 47.5553 24.4093 47.5964 24.2237 47.8225C24.0381 48.0589 24.0793 48.3878 24.3062 48.5728C24.5434 48.7578 24.8734 48.7167 25.059 48.4906C25.2446 48.2645 25.2034 47.9253 24.9765 47.7403ZM22.5118 45.767C22.2849 46.0547 22.3365 46.4659 22.6149 46.6817C22.9037 46.9078 23.3162 46.8564 23.5328 46.5789C23.7493 46.3117 23.7081 45.9211 23.4606 45.695C23.4915 45.6847 23.5224 45.6745 23.5534 45.6642C23.6874 45.5717 23.7287 45.397 23.6462 45.2531C23.5534 45.1195 23.3781 45.0783 23.2337 45.1606C23.1099 45.2428 23.0687 45.397 23.1306 45.5306C22.914 45.4895 22.6665 45.5717 22.5118 45.767ZM22.2953 47.7711C22.3468 47.7095 22.3365 47.617 22.2746 47.5758C22.2128 47.5245 22.1199 47.5347 22.0787 47.5964C22.0271 47.6581 22.0374 47.7506 22.0993 47.7917C22.1509 47.8431 22.2437 47.8328 22.2953 47.7711ZM17.9949 45.0886C18.2528 45.2942 18.6343 45.2531 18.8303 44.9961C18.8921 44.9139 18.9334 44.8214 18.9437 44.7289C19.0778 44.77 19.2324 44.6981 19.2737 44.5645C19.3253 44.4206 19.2531 44.2664 19.1087 44.215C19.0056 44.1739 18.9024 44.2047 18.8303 44.2767C18.7993 44.2356 18.7684 44.2047 18.7271 44.1739C18.4693 43.9683 18.0878 44.0095 17.8918 44.2664C17.6959 44.5131 17.7371 44.8831 17.9949 45.0886ZM20.4803 54.832C20.1503 54.575 19.6759 54.6264 19.4181 54.9553C19.1603 55.2842 19.2118 55.757 19.5418 56.0139C19.7274 56.1578 19.9543 56.1989 20.1606 56.1578C20.1812 56.2503 20.2431 56.3222 20.3256 56.3531C20.4699 56.4045 20.6246 56.3325 20.6762 56.1886C20.7174 56.0756 20.6762 55.9625 20.5937 55.8906C20.8618 55.572 20.8103 55.0992 20.4803 54.832ZM24.0174 53.5164C24.1206 53.3828 24.0999 53.1875 23.9659 53.0745C23.8318 52.9717 23.6359 52.9922 23.5224 53.1259C23.4193 53.2595 23.4399 53.4547 23.574 53.5678C23.7184 53.6706 23.9143 53.65 24.0174 53.5164ZM24.2959 50.8031C24.3784 50.69 24.3681 50.5358 24.2546 50.4433C24.1412 50.3611 23.9865 50.3714 23.8937 50.4845C23.8112 50.5975 23.8215 50.7517 23.9349 50.8442C24.0484 50.9264 24.2134 50.9058 24.2959 50.8031ZM20.109 49.0353C19.7378 49.0764 19.4799 49.4156 19.5212 49.7856C19.5624 50.1556 19.9028 50.4125 20.274 50.3714C20.6453 50.3303 20.9031 49.9911 20.8618 49.6211C20.8103 49.2511 20.4803 48.9942 20.109 49.0353ZM9.92026 51.0908C9.89963 50.9264 9.74494 50.8031 9.57994 50.8236C9.41494 50.8442 9.29119 50.9983 9.31182 51.1628C9.33244 51.3272 9.48713 51.4506 9.65213 51.43C9.81713 51.4095 9.94088 51.2553 9.92026 51.0908ZM9.98213 52.2728C9.82744 52.2934 9.71401 52.427 9.73463 52.5914C9.75526 52.7456 9.88932 52.8586 10.0543 52.8381C10.209 52.8175 10.3224 52.6839 10.3018 52.5195C10.2812 52.3653 10.1368 52.2522 9.98213 52.2728ZM13.344 50.5872C13.3749 50.8647 13.6328 51.0703 13.9112 51.0292C14.1896 50.9983 14.3959 50.7414 14.3546 50.4639C14.3237 50.1864 14.0659 49.9809 13.7874 50.022C13.509 50.0528 13.3131 50.3097 13.344 50.5872ZM15.0765 48.7372C15.3446 48.7064 15.5406 48.4597 15.5096 48.1925C15.4787 47.9253 15.2312 47.73 14.9631 47.7609C14.6949 47.7917 14.499 48.0384 14.5299 48.3056C14.5609 48.5728 14.8084 48.7681 15.0765 48.7372ZM14.6537 49.8267C14.7878 49.8986 14.9528 49.8575 15.0353 49.7239C15.1074 49.5903 15.0662 49.4258 14.9321 49.3436C14.7981 49.2717 14.6331 49.3128 14.5506 49.4464C14.4784 49.58 14.5196 49.7547 14.6537 49.8267ZM15.5509 50.2995C15.4478 50.2378 15.3137 50.2789 15.2518 50.3817C15.1899 50.4845 15.2312 50.6181 15.3343 50.6797C15.4374 50.7414 15.5715 50.7003 15.6334 50.5975C15.6849 50.4947 15.654 50.3611 15.5509 50.2995ZM15.6953 54.1228C15.6231 54.2564 15.6643 54.4208 15.7984 54.5031C15.9324 54.575 16.0974 54.5339 16.1799 54.4003C16.2521 54.2667 16.2109 54.1022 16.0768 54.02C15.9428 53.9481 15.7778 53.9995 15.6953 54.1228ZM11.5393 53.6397C11.4259 53.8247 11.4981 54.0714 11.6837 54.1742C11.8693 54.2872 12.1168 54.2153 12.2199 54.0303C12.3334 53.8453 12.2612 53.5986 12.0756 53.4958C11.8899 53.3828 11.6528 53.4445 11.5393 53.6397ZM23.4193 42.4781C23.3162 42.6528 23.3781 42.8686 23.5534 42.9714C23.7287 43.0742 23.9453 43.0125 24.0484 42.8378C24.1515 42.6631 24.0896 42.4472 23.9143 42.3445C23.739 42.252 23.5121 42.3033 23.4193 42.4781ZM13.0553 55.6953C13.3646 55.87 13.7565 55.7672 13.9421 55.4589C14.1174 55.1506 14.0143 54.76 13.7049 54.575C13.3956 54.4003 13.0037 54.5031 12.8181 54.8114C12.6428 55.13 12.7459 55.5206 13.0553 55.6953ZM15.7262 53.095C15.6643 53.1978 15.7056 53.3314 15.8087 53.3931C15.9118 53.4547 16.0459 53.4136 16.1078 53.3109C16.1696 53.2081 16.1284 53.0745 16.0253 53.0128C15.9221 52.9511 15.7881 52.9922 15.7262 53.095ZM16.5306 49.8472C16.6749 49.8986 16.8296 49.8267 16.8915 49.6828C16.9431 49.5389 16.8709 49.3847 16.7265 49.3231C16.5821 49.2717 16.4274 49.3436 16.3656 49.4875C16.314 49.6314 16.3862 49.7958 16.5306 49.8472ZM19.6449 51.2964C19.6862 51.1834 19.6243 51.06 19.5109 51.0189C19.3974 50.9778 19.2737 51.0395 19.2324 51.1525C19.1912 51.2656 19.2531 51.3889 19.3665 51.43C19.4799 51.4711 19.6037 51.4095 19.6449 51.2964ZM18.0878 53.7322C18.1393 53.5883 18.0671 53.4239 17.9228 53.3725C17.7784 53.3211 17.6134 53.3931 17.5618 53.537C17.5103 53.6809 17.5824 53.8453 17.7268 53.8967C17.8712 53.9584 18.0362 53.8761 18.0878 53.7322ZM21.5115 41.9847C21.6868 42.0464 21.8828 41.9539 21.9549 41.7792C22.0168 41.6045 21.924 41.4092 21.7487 41.3372C21.5734 41.2756 21.3774 41.3681 21.3053 41.5428C21.2434 41.7278 21.3362 41.9231 21.5115 41.9847ZM17.1287 55.8906C17.2731 55.942 17.4381 55.87 17.4896 55.7261C17.5412 55.5822 17.469 55.4178 17.3246 55.3664C17.1803 55.315 17.0153 55.387 16.9637 55.5308C16.9121 55.6747 16.9843 55.8392 17.1287 55.8906ZM14.5815 57.2164C14.7053 57.2678 14.8393 57.2061 14.9115 57.1033C15.0146 57.1753 15.1384 57.2061 15.2724 57.1958C15.5612 57.165 15.7674 56.8978 15.7365 56.61C15.7056 56.3222 15.4374 56.1167 15.1487 56.1475C14.8806 56.1783 14.6846 56.4147 14.6846 56.682C14.5712 56.682 14.4578 56.7539 14.4165 56.867C14.3546 56.9903 14.4268 57.1547 14.5815 57.2164ZM20.9753 45.1708C20.8412 45.1195 20.6968 45.1914 20.6453 45.325C20.5937 45.4586 20.6659 45.6025 20.7999 45.6539C20.934 45.7053 21.0784 45.6334 21.1299 45.4997C21.1815 45.3661 21.1093 45.2222 20.9753 45.1708ZM21.5837 52.6017C21.4393 52.5503 21.2846 52.6222 21.2331 52.7661C21.1815 52.91 21.2537 53.0642 21.3981 53.1156C21.5424 53.167 21.6971 53.095 21.7487 52.9511C21.8003 52.8072 21.7281 52.6531 21.5837 52.6017ZM25.1828 51.8514C25.3271 51.9028 25.4818 51.8308 25.5334 51.687C25.5849 51.5431 25.5128 51.3889 25.3684 51.3375C25.224 51.2861 25.0693 51.3581 25.0178 51.502C24.9662 51.6459 25.0384 51.8 25.1828 51.8514ZM24.9662 49.9911C25.0178 49.8472 24.9456 49.6931 24.8012 49.6417C24.6568 49.5903 24.5021 49.6622 24.4506 49.8061C24.399 49.95 24.4712 50.1042 24.6156 50.1556C24.7599 50.207 24.9146 50.1247 24.9662 49.9911ZM25.2034 53.9275L25.2756 53.7425L25.4199 53.3725C25.4199 53.3725 25.4096 53.3725 25.4096 53.3622C25.2756 53.3109 25.1312 53.3622 25.059 53.4753C25.0487 53.4958 25.0384 53.5164 25.0281 53.537C24.9559 53.7014 25.0384 53.8659 25.2034 53.9275C25.1931 53.9275 25.1931 53.9275 25.2034 53.9275ZM25.7499 52.5297L25.9149 52.0981C25.884 52.0261 25.8118 51.9542 25.7293 51.9234C25.5643 51.8617 25.3684 51.9542 25.3065 52.1186C25.2446 52.2831 25.3374 52.4681 25.5024 52.54C25.5953 52.5606 25.6778 52.5606 25.7499 52.5297ZM26.1831 51.4095L26.4203 50.8031L26.4821 50.6386L26.6368 50.2481C26.6471 50.0425 26.5543 49.837 26.3893 49.7034C26.1006 49.4772 25.6881 49.5286 25.4612 49.8164C25.3684 49.9295 25.3168 50.0733 25.3168 50.207C25.3168 50.32 25.3374 50.4228 25.389 50.5256C25.3581 50.5564 25.3271 50.5975 25.3168 50.6489C25.2446 50.8339 25.3478 51.0395 25.5231 51.1011C25.7087 51.1731 25.9149 51.0703 25.9768 50.8956C26.0078 50.8956 26.049 50.8956 26.0799 50.8853C26.0387 50.9161 26.0078 50.9572 25.9871 51.0086C25.9459 51.1628 26.0284 51.3375 26.1831 51.4095ZM24.7393 46.8461C24.6465 46.8153 24.5434 46.8358 24.4712 46.8975C24.4403 46.8667 24.399 46.8461 24.3474 46.8256C24.1309 46.7536 23.904 46.8564 23.8215 47.0722C23.7493 47.2881 23.8524 47.5142 24.069 47.5964C24.2753 47.6684 24.4918 47.5758 24.5846 47.3806C24.7187 47.4114 24.8528 47.3395 24.9043 47.2161C24.9559 47.062 24.8837 46.8975 24.7393 46.8461ZM19.2324 46.0753C19.1809 46.2192 19.2531 46.3734 19.3974 46.4247C19.5418 46.4761 19.6965 46.4042 19.7481 46.2603C19.7481 46.25 19.7481 46.25 19.7481 46.2397C19.7687 46.25 19.779 46.2706 19.7996 46.2706C19.9028 46.3117 20.0162 46.2603 20.0471 46.1575C20.0884 46.0547 20.0368 45.9417 19.9337 45.9109C19.8409 45.88 19.7378 45.9211 19.6965 46.0034C19.6656 45.9622 19.6243 45.9314 19.5728 45.9109C19.4387 45.8595 19.284 45.9314 19.2324 46.0753ZM19.5315 47.6272C19.3768 47.5758 19.2118 47.6272 19.119 47.7506C19.0984 47.5964 19.0159 47.4422 18.8818 47.3395C18.6034 47.1236 18.2115 47.1647 17.9949 47.4422C17.7784 47.7197 17.8196 48.1103 18.0981 48.3261C18.3765 48.542 18.7684 48.5009 18.9849 48.2234C19.0159 48.1822 19.0468 48.1308 19.0674 48.0795C19.0984 48.172 19.1809 48.2542 19.284 48.2953C19.4696 48.3672 19.6759 48.2645 19.7481 48.0795C19.8099 47.8945 19.7171 47.6889 19.5315 47.6272ZM15.5199 44.9961C15.7262 45.0681 15.9634 44.9653 16.0356 44.7597C16.1078 44.5542 16.0046 44.3178 15.7984 44.2459C15.5921 44.1739 15.3549 44.2767 15.2828 44.4822C15.2106 44.6981 15.3137 44.9242 15.5199 44.9961ZM20.7587 48.4392C20.7071 48.5831 20.7793 48.7372 20.9237 48.7886C21.0681 48.84 21.2228 48.7681 21.2743 48.6242C21.3259 48.4803 21.2537 48.3261 21.1093 48.2747C20.9649 48.2234 20.8103 48.2953 20.7587 48.4392ZM22.6871 48.8606C22.584 48.9736 22.5943 49.1484 22.6974 49.2511C22.8109 49.3539 22.9862 49.3436 23.0893 49.2409C23.1924 49.1381 23.1821 48.9531 23.079 48.8503C22.9656 48.7475 22.7903 48.7578 22.6871 48.8606ZM21.8106 48.8708C21.6971 48.9942 21.6971 49.1997 21.8312 49.3128C21.9549 49.4258 22.1612 49.4258 22.2746 49.2922C22.3881 49.1689 22.3881 48.9633 22.254 48.8503C22.1199 48.7372 21.924 48.7475 21.8106 48.8708ZM23.4812 48.5008C23.5328 48.357 23.4606 48.2028 23.3162 48.1514C23.1718 48.1 23.0171 48.172 22.9656 48.3159C22.914 48.4597 22.9862 48.6139 23.1306 48.6653C23.2646 48.7167 23.4296 48.6345 23.4812 48.5008ZM26.4306 44.1636C26.379 44.3075 26.4512 44.4617 26.5956 44.5131C26.7399 44.5645 26.8946 44.4925 26.9462 44.3486C26.9978 44.2047 26.9256 44.0506 26.7812 43.9992C26.6471 43.9478 26.4821 44.0197 26.4306 44.1636ZM25.1106 42.3959C25.1621 42.5397 25.3271 42.6117 25.4612 42.5603C25.5953 42.5089 25.6778 42.3445 25.6262 42.2109C25.5746 42.067 25.4096 41.995 25.2756 42.0464C25.1415 42.0978 25.059 42.252 25.1106 42.3959ZM24.9456 42.1389C25.0899 42.0875 25.1621 41.9231 25.1106 41.7895C25.059 41.6456 24.894 41.5736 24.7599 41.625C24.6259 41.6764 24.5434 41.8408 24.5949 41.9745C24.6465 42.1183 24.8115 42.1903 24.9456 42.1389ZM27.7093 43.0022C27.8331 42.92 27.8743 42.7453 27.7918 42.622C27.7093 42.4986 27.534 42.4575 27.4103 42.5397C27.2865 42.622 27.2453 42.7967 27.3278 42.92C27.4103 43.0434 27.5856 43.0845 27.7093 43.0022ZM29.184 45.8183C29.0603 45.7875 28.9365 45.8697 28.9159 45.9931C28.8849 46.1164 28.9674 46.2397 29.0912 46.2603C29.2149 46.2911 29.3387 46.2089 29.3593 46.0856C29.3903 45.9622 29.3078 45.8389 29.184 45.8183ZM26.8224 45.0886C26.6884 45.1811 26.6471 45.3559 26.7296 45.4895C26.7709 45.5511 26.8328 45.5922 26.9049 45.6128C26.8637 45.6231 26.8224 45.6333 26.7915 45.6642C26.7606 45.6847 26.7296 45.7156 26.709 45.7464C26.5956 45.7361 26.4821 45.7567 26.379 45.8183C26.214 45.9211 26.1418 46.1061 26.1521 46.2911C25.9665 46.25 25.7603 46.2706 25.5849 46.3836C25.2446 46.5995 25.1518 47.0517 25.3684 47.3909C25.4715 47.545 25.6159 47.6478 25.7809 47.6889C25.7706 47.7917 25.7809 47.8945 25.8428 47.9972C25.9768 48.2028 26.2553 48.2645 26.4615 48.1308C26.6678 47.9972 26.7296 47.7197 26.5956 47.5142C26.5853 47.4936 26.5646 47.4731 26.5543 47.4525C26.7193 47.247 26.7709 46.9797 26.6781 46.7331C26.7296 46.7331 26.7709 46.7228 26.8121 46.7125C26.8431 46.7434 26.8843 46.7639 26.9359 46.7742C27.0803 46.805 27.2349 46.7125 27.2659 46.5686C27.2865 46.4556 27.2453 46.3425 27.1524 46.2808C27.1524 46.2603 27.1524 46.2397 27.1524 46.2192C27.1524 46.2192 27.1524 46.2192 27.1628 46.2192C27.3174 46.1164 27.3587 45.9109 27.2659 45.7567C27.2143 45.6847 27.1421 45.6333 27.0596 45.6128C27.0906 45.6025 27.1215 45.5922 27.1524 45.5717C27.2865 45.4792 27.3278 45.3045 27.2453 45.1708C27.1421 45.0475 26.9565 45.0064 26.8224 45.0886ZM27.6268 46.4145C27.7196 46.5584 27.9156 46.5995 28.0703 46.507C28.2146 46.4145 28.2559 46.2192 28.1631 46.065C28.0703 45.9211 27.8743 45.88 27.7196 45.9725C27.5753 46.065 27.534 46.2706 27.6268 46.4145ZM27.4721 47.2778C27.4515 47.2881 27.4309 47.3086 27.4206 47.3395C27.369 47.2675 27.2865 47.2264 27.1937 47.2264C27.039 47.2264 26.9049 47.3497 26.9049 47.5142C26.9049 47.6683 27.0287 47.802 27.1937 47.802C27.3381 47.802 27.4412 47.6992 27.4721 47.5656C27.5237 47.5964 27.5959 47.6067 27.6578 47.5656C27.7403 47.5142 27.7609 47.4114 27.7093 47.3292C27.6578 47.247 27.5546 47.2264 27.4721 47.2778ZM26.1934 49.1895C26.3171 49.1072 26.3481 48.9531 26.2759 48.8297C26.1934 48.7064 26.0387 48.6756 25.9149 48.7475C25.7912 48.8297 25.7603 48.9839 25.8324 49.1072C25.9149 49.2408 26.0799 49.2717 26.1934 49.1895ZM27.9671 47.7197C27.8743 47.8122 27.8743 47.9664 27.9671 48.0692C28.0599 48.1617 28.2146 48.1617 28.3178 48.0692C28.4106 47.9767 28.4106 47.8225 28.3178 47.7197C28.2146 47.6272 28.0599 47.6272 27.9671 47.7197ZM29.8749 47.73C29.9884 47.617 29.9884 47.4422 29.8749 47.3292C29.7615 47.2161 29.5862 47.2161 29.4728 47.3292C29.3593 47.4422 29.3593 47.617 29.4728 47.73C29.5862 47.8431 29.7718 47.8431 29.8749 47.73ZM29.5037 48.2336C29.4212 48.1514 29.3284 48.1103 29.2253 48.0897C29.0706 48.0589 28.9056 48.1103 28.7818 48.2336C28.5859 48.4289 28.5859 48.7578 28.7818 48.9531C28.9778 49.1483 29.3078 49.1483 29.5037 48.9531C29.6584 48.7989 29.6893 48.5728 29.6068 48.3878C29.5862 48.3261 29.5553 48.2747 29.5037 48.2336ZM28.3384 49.4772C28.0909 49.2306 27.699 49.2306 27.4515 49.4772C27.2349 49.6931 27.2143 50.0322 27.3896 50.2789C27.3587 50.3611 27.3587 50.4639 27.3999 50.5461C27.4824 50.7722 27.7299 50.8853 27.9568 50.8031C28.0393 50.7722 28.1115 50.7208 28.1528 50.6489C28.1734 50.6797 28.194 50.7106 28.2249 50.7311C28.4518 50.9572 28.8231 50.9572 29.0499 50.7311C29.2768 50.505 29.2768 50.135 29.0499 49.9089C28.8953 49.7547 28.689 49.7136 28.4931 49.7547C28.4724 49.6622 28.4209 49.5595 28.3384 49.4772ZM33.9484 53.9481L33.7112 53.3725L33.5978 53.1053L33.5049 52.8689C33.4224 52.9511 33.4018 53.0642 33.4328 53.1567C33.4018 53.1772 33.3606 53.1978 33.3296 53.2286C33.144 53.4136 33.144 53.7117 33.3296 53.8967C33.5049 54.0714 33.7628 54.0817 33.9484 53.9481ZM32.8553 54.7806C32.7934 54.8422 32.7418 54.9245 32.7006 54.9964C32.6078 55.202 32.6078 55.4384 32.7109 55.6439C32.7418 55.7056 32.7831 55.757 32.8243 55.8186C32.8037 55.8495 32.7831 55.8803 32.7624 55.9214C32.7109 56.0756 32.7624 56.24 32.8862 56.3325C32.8346 56.5175 32.9378 56.7128 33.1234 56.7847C33.3193 56.8567 33.5359 56.7539 33.6081 56.5586C33.6699 56.3942 33.5978 56.2092 33.4534 56.1064C33.4534 56.0859 33.4534 56.0756 33.4534 56.055C33.6184 56.0345 33.7834 55.9728 33.9071 55.8495C33.9174 55.8392 33.9381 55.8186 33.9484 55.8083C34.2062 55.5103 34.1856 55.0683 33.9071 54.7908C33.6184 54.4928 33.144 54.4928 32.8553 54.7806ZM30.6999 50.4947C30.6174 50.2789 30.3803 50.1658 30.1637 50.2481C29.9471 50.3303 29.8337 50.5667 29.9162 50.7825C29.9987 50.9984 30.2359 51.1114 30.4524 51.0292C30.669 50.947 30.7824 50.7106 30.6999 50.4947ZM29.1531 53.6192C29.3284 53.5575 29.4418 53.4239 29.5037 53.2595C29.5346 53.2492 29.5656 53.2286 29.5965 53.1978C29.7203 53.0745 29.7203 52.8792 29.5965 52.7558C29.5346 52.6942 29.4521 52.6634 29.3696 52.6634C29.2149 52.5092 28.9778 52.4475 28.7612 52.5297C28.7509 52.5297 28.7509 52.54 28.7406 52.54C28.7509 52.4989 28.7406 52.4681 28.7303 52.427C28.8024 52.427 28.8746 52.3961 28.9262 52.3447C29.0396 52.2317 29.0396 52.0364 28.9262 51.9234C28.8128 51.8103 28.6168 51.8103 28.5034 51.9234C28.4106 52.0159 28.3899 52.1392 28.4415 52.2522C28.3899 52.2625 28.3384 52.2831 28.2971 52.3242C28.194 52.427 28.194 52.5914 28.2971 52.6942C28.3487 52.7456 28.4106 52.7661 28.4724 52.7661C28.3796 52.91 28.3487 53.1053 28.4106 53.28C28.5137 53.5781 28.854 53.7322 29.1531 53.6192ZM29.3799 49.6211C29.2665 49.7342 29.2665 49.9295 29.3799 50.0528C29.4934 50.1658 29.6893 50.1658 29.8131 50.0528C29.9265 49.9397 29.9265 49.7445 29.8131 49.6211C29.6893 49.5081 29.4934 49.5081 29.3799 49.6211ZM31.5456 52.91C31.659 53.0231 31.8446 53.0231 31.9581 52.91C32.0715 52.797 32.0715 52.612 31.9581 52.4989C31.8446 52.3858 31.659 52.3858 31.5456 52.4989C31.4321 52.612 31.4321 52.797 31.5456 52.91ZM33.7318 56.4661C33.639 56.5586 33.5978 56.6922 33.6287 56.8053C33.5462 56.9184 33.5462 57.0828 33.6493 57.1856C33.7628 57.2986 33.9484 57.2986 34.0618 57.1856C34.0824 57.165 34.0928 57.1342 34.1134 57.1136C34.1753 57.0931 34.2371 57.0622 34.2887 57.0109C34.4434 56.8567 34.4434 56.61 34.2887 56.4558C34.134 56.312 33.8865 56.312 33.7318 56.4661ZM32.2881 54.6264C32.4015 54.7395 32.5871 54.7395 32.7006 54.6264C32.7934 54.5442 32.814 54.4106 32.7624 54.2975C32.7521 54.2667 32.7315 54.2358 32.7006 54.2153C32.5871 54.1022 32.4015 54.1022 32.2881 54.2153C32.1953 54.3078 32.1746 54.4517 32.2365 54.5647C32.2571 54.5853 32.2674 54.6059 32.2881 54.6264ZM34.6084 56.5278C34.7424 56.5792 34.8765 56.5586 34.9899 56.4867L34.6599 55.685C34.5156 55.7158 34.3918 55.8186 34.3403 55.9625C34.2578 56.1886 34.3712 56.4353 34.6084 56.5278ZM31.5146 54.1433C31.6074 54.1331 31.7003 54.092 31.7724 54.02C31.824 53.9686 31.8653 53.8967 31.8859 53.8247C31.9993 53.8556 32.1128 53.8247 32.2056 53.7425C32.2778 53.6706 32.3087 53.5678 32.2984 53.4753C32.2984 53.4342 32.2881 53.3931 32.2674 53.352C32.2571 53.3211 32.2365 53.2903 32.2056 53.2697C32.1024 53.167 31.9478 53.1464 31.824 53.2081C31.7931 53.2184 31.7621 53.2492 31.7312 53.2697C31.7209 53.28 31.7106 53.3006 31.7003 53.3109C31.6899 53.3006 31.6796 53.2903 31.659 53.2903C31.4837 53.1978 31.2671 53.2183 31.1228 53.3725C31.0403 53.4547 30.9887 53.5781 30.9887 53.6911C30.9887 53.8145 31.0299 53.9275 31.1228 54.02C31.2259 54.1228 31.3806 54.1742 31.5146 54.1433ZM27.2865 51.2245L27.5134 51.8C27.6371 51.7897 27.7506 51.7178 27.8124 51.6047C27.8228 51.5945 27.8228 51.5739 27.8331 51.5636C27.9981 51.6356 28.194 51.5739 28.2868 51.4095C28.3899 51.2347 28.3281 51.0189 28.1528 50.9161C27.9774 50.8133 27.7609 50.875 27.6578 51.0497C27.5753 51.0086 27.4928 50.9881 27.3999 50.9984C27.4515 50.8031 27.3587 50.5872 27.1731 50.4742C27.1009 50.4331 27.0287 50.4125 26.9565 50.4125L27.2143 51.0703L27.2865 51.2245ZM31.8756 50.4433C31.7931 50.577 31.8446 50.7517 31.9787 50.8339C31.9993 50.8442 32.0199 50.8545 32.0406 50.8647C32.0509 50.9058 32.0715 50.9367 32.0921 50.9675C31.9684 51.0189 31.8962 51.1422 31.9168 51.2758C31.9168 51.2758 31.9168 51.2758 31.9168 51.2861C31.8343 51.4095 31.8549 51.5842 31.9581 51.6972C32.0199 51.7589 32.1024 51.7897 32.1849 51.8C32.1334 51.8308 32.1024 51.8617 32.0715 51.9131C31.9684 51.8309 31.8137 51.8411 31.7106 51.9234C31.7003 51.9234 31.7003 51.9336 31.6899 51.9336C31.6487 51.9747 31.6178 52.0261 31.6074 52.0775C31.5868 52.17 31.6178 52.2728 31.6899 52.3447C31.8034 52.4578 31.989 52.4578 32.1024 52.3447C32.1231 52.3242 32.1437 52.3036 32.154 52.2728C32.2159 52.3139 32.2881 52.3345 32.3603 52.3242C32.5149 52.2934 32.6284 52.1495 32.5974 51.9953C32.5768 51.8617 32.4634 51.7589 32.3293 51.7589C32.3603 51.7486 32.3912 51.7281 32.4118 51.6972C32.5253 51.5842 32.5356 51.4197 32.4634 51.2861C32.4634 51.2553 32.4634 51.2245 32.4634 51.1833C32.4531 51.132 32.4324 51.0909 32.4015 51.0497C32.4531 51.0292 32.5149 50.9881 32.5459 50.9264C32.6181 50.8031 32.5871 50.6489 32.4737 50.5564C32.4943 50.5564 32.5149 50.5667 32.5459 50.5667L32.1849 49.6931C32.154 49.7239 32.1334 49.7445 32.1231 49.7753C32.0303 49.9397 32.0303 50.135 32.1231 50.2995C32.0406 50.2892 31.9374 50.3406 31.8756 50.4433ZM31.1846 52.9614C31.2156 52.9306 31.2362 52.8895 31.2465 52.8586C31.2774 52.7661 31.2568 52.6634 31.1846 52.5811C31.0918 52.4886 30.9578 52.4784 30.8443 52.54C30.834 52.5503 30.8134 52.5606 30.8031 52.5811L30.7928 52.5914C30.7309 52.6634 30.7103 52.7559 30.7412 52.8484C30.7515 52.8895 30.7721 52.9306 30.8134 52.9614C30.9062 53.0642 31.0712 53.0642 31.1846 52.9614ZM32.3809 52.9306C32.3706 52.9408 32.3499 52.9511 32.3396 52.9717C32.2674 53.0436 32.2365 53.1258 32.2468 53.2183C32.2468 53.2595 32.2571 53.3006 32.2778 53.3417C32.2881 53.3725 32.3087 53.3931 32.3293 53.4239C32.3603 53.4547 32.3912 53.4753 32.4324 53.4958C32.4943 53.5164 32.5665 53.5267 32.6284 53.5061C32.6696 53.4958 32.7109 53.4753 32.7418 53.4445C32.7521 53.4445 32.7624 53.4342 32.7728 53.4239C32.814 53.3828 32.8449 53.3211 32.8553 53.2595C32.8656 53.2184 32.8656 53.1772 32.8553 53.1361C32.8553 53.1258 32.8553 53.1156 32.8449 53.1053C32.8346 53.0539 32.8037 53.0128 32.7728 52.9717C32.7418 52.9409 32.7109 52.9203 32.6799 52.91C32.6593 52.8997 32.6284 52.8895 32.6078 52.8895C32.5356 52.8586 32.4531 52.8792 32.3809 52.9306ZM30.6278 51.9953C30.6381 51.985 30.6381 51.985 30.6381 51.9747C30.7309 51.872 30.7206 51.7075 30.6278 51.615C30.5865 51.5739 30.5246 51.5431 30.4731 51.5328C30.4215 51.5225 30.3699 51.5328 30.3184 51.5534C30.2874 51.5636 30.2668 51.5842 30.2462 51.6047C30.2049 51.6459 30.1843 51.687 30.174 51.7383C30.1121 51.7281 30.0399 51.7281 29.9781 51.7486C29.9987 51.6767 29.9884 51.5945 29.9574 51.5225C29.9162 51.4095 29.8234 51.317 29.7099 51.2758C29.7306 51.1833 29.6996 51.0806 29.6274 51.0086C29.514 50.8956 29.3181 50.8956 29.1943 51.0086C29.0809 51.1217 29.0809 51.317 29.1943 51.4403C29.1943 51.4403 29.1943 51.4403 29.2046 51.4403C29.1428 51.5431 29.1221 51.6767 29.1634 51.8103C29.184 51.8822 29.2253 51.9336 29.2768 51.9747C29.2046 51.9747 29.1428 52.0056 29.0912 52.057C28.9881 52.1597 28.9881 52.3345 29.0912 52.4372C29.1943 52.54 29.3696 52.54 29.4728 52.4372C29.5759 52.3345 29.5759 52.1803 29.4831 52.0775C29.5449 52.0878 29.6068 52.0878 29.6687 52.0672C29.6481 52.1392 29.6584 52.2214 29.679 52.2933C29.7306 52.4475 29.8749 52.54 30.0193 52.5606C29.9987 52.6428 30.0193 52.7353 30.0915 52.8072C30.1946 52.91 30.3699 52.91 30.4731 52.8072C30.5762 52.7045 30.5762 52.5297 30.4731 52.427C30.4524 52.4064 30.4318 52.3961 30.4112 52.3859C30.4731 52.3036 30.4937 52.2111 30.4834 52.1083C30.4834 52.0981 30.4731 52.0775 30.4731 52.0672C30.4937 52.057 30.5246 52.0467 30.5453 52.0364C30.5968 52.0158 30.6174 52.0056 30.6278 51.9953ZM31.5559 51.2039C31.4837 51.132 31.3909 51.0806 31.2981 51.0703C31.2053 51.06 31.1228 51.0703 31.0403 51.1114C30.9887 51.132 30.9474 51.1628 30.9062 51.2039C30.8134 51.2964 30.7721 51.4197 30.7721 51.5328C30.7721 51.6458 30.8237 51.7589 30.9062 51.8514C30.9474 51.8925 30.9887 51.9131 31.0299 51.9439C31.164 52.0056 31.329 52.0056 31.4631 51.9234C31.494 51.9028 31.5249 51.8822 31.5559 51.8617C31.5662 51.8514 31.5765 51.8411 31.5868 51.8308C31.7312 51.6458 31.7209 51.3786 31.5559 51.2039ZM30.2049 53.5164C30.3287 53.3931 30.3287 53.1978 30.2049 53.0745C30.0812 52.9511 29.8853 52.9511 29.7615 53.0745C29.6378 53.1978 29.6378 53.3931 29.7615 53.5164C29.8853 53.6397 30.0812 53.6397 30.2049 53.5164ZM30.5659 53.9481C30.7103 53.9378 30.8237 53.8145 30.8134 53.6706C30.8031 53.5267 30.6793 53.4136 30.5349 53.4239C30.3906 53.4342 30.2771 53.5575 30.2874 53.7014C30.2978 53.8556 30.4215 53.9584 30.5659 53.9481ZM28.3178 53.6295C28.2868 53.6295 28.2662 53.6397 28.2353 53.65L28.3693 53.9892L28.4209 54.1331L28.5446 54.4414C28.6065 54.39 28.6374 54.3181 28.6271 54.2359C28.6271 54.1639 28.5859 54.1022 28.5343 54.0509C28.5756 53.9995 28.5962 53.9378 28.5859 53.8761C28.5859 53.7322 28.4621 53.6295 28.3178 53.6295ZM31.1331 54.9861C31.2362 54.9758 31.3187 54.9142 31.3599 54.8217C31.3703 54.7909 31.3806 54.7497 31.3806 54.7086C31.3703 54.5647 31.2465 54.4517 31.1021 54.462C31.0196 54.4722 30.9578 54.5031 30.9165 54.5647C30.8753 54.6161 30.8546 54.6778 30.8546 54.7395C30.8649 54.8833 30.9887 54.9861 31.1331 54.9861ZM27.4618 48.1925C27.3381 48.2747 27.2968 48.4495 27.3793 48.5728C27.4618 48.6961 27.6371 48.7372 27.7609 48.655C27.8846 48.5728 27.9259 48.3981 27.8434 48.2747C27.7609 48.1411 27.5959 48.1103 27.4618 48.1925ZM30.0606 47.2572C29.8956 47.0003 29.9678 46.6508 30.2256 46.4864C30.4628 46.3322 30.7618 46.3836 30.9371 46.5789L31.0815 46.9284C31.0815 46.9592 31.0815 47.0003 31.0815 47.0311C31.0815 47.0311 31.0815 47.0311 31.0918 47.0311C31.1021 47.0311 31.1124 47.0209 31.1228 47.0209L31.5146 47.987L31.5249 48.0178L31.659 48.357L31.8859 48.9017L31.9581 49.0661C31.9271 49.1792 31.8756 49.2717 31.7931 49.3539C31.659 49.4875 31.4837 49.5492 31.3187 49.5389C31.3084 49.5903 31.2774 49.652 31.2362 49.6931C31.1228 49.8061 30.9268 49.8061 30.8134 49.6931C30.6896 49.5697 30.6896 49.3847 30.8134 49.2614C30.7103 49.1072 30.6793 48.9222 30.7206 48.7372C30.669 48.8297 30.5865 48.8914 30.4834 48.9325C30.4112 48.9634 30.339 48.9633 30.2771 48.9633C30.1121 48.9428 29.9574 48.84 29.8956 48.6653C29.8028 48.4289 29.9265 48.1617 30.1637 48.0692C30.2153 48.0486 30.2771 48.0383 30.339 48.0383C30.3493 47.9972 30.3803 47.9664 30.4112 47.9356C30.4421 47.9047 30.4834 47.8842 30.5143 47.8636C30.4215 47.7609 30.4215 47.617 30.504 47.5039C30.3184 47.4936 30.1534 47.4114 30.0606 47.2572ZM30.8753 47.8945C30.8649 47.9047 30.8443 47.915 30.834 47.9253L30.8443 47.9356C30.9681 48.0589 30.9681 48.2542 30.8443 48.3775C30.8237 48.3981 30.7928 48.4186 30.7721 48.4289C30.7824 48.4803 30.7824 48.5317 30.7721 48.5831C30.8031 48.5317 30.834 48.4803 30.8856 48.4392C30.9371 48.3878 30.9887 48.357 31.0403 48.3261C31.0506 48.2953 31.0609 48.2645 31.0815 48.2439C31.1228 48.172 31.1743 48.1103 31.2465 48.0692C31.0918 48.0589 30.9681 47.9972 30.8753 47.8945ZM28.7715 44.7803C28.8643 44.9139 29.0396 44.955 29.1737 44.8728C29.3078 44.7803 29.349 44.6056 29.2665 44.472C29.1737 44.3384 28.9984 44.2972 28.8643 44.3795C28.7199 44.4617 28.6787 44.6467 28.7715 44.7803ZM28.8437 43.105C28.9159 43.0639 28.9365 42.9714 28.8849 42.8995C28.8334 42.8275 28.7509 42.807 28.6787 42.8584C28.6065 42.8995 28.5859 42.992 28.6374 43.0639C28.689 43.1256 28.7818 43.1461 28.8437 43.105ZM24.8012 43.1359C24.6259 43.2489 24.5743 43.4853 24.6878 43.66C24.8012 43.8347 25.0384 43.8861 25.2137 43.7731C25.389 43.66 25.4406 43.4236 25.3271 43.2489C25.2137 43.0742 24.9765 43.0228 24.8012 43.1359ZM26.5337 41.9847C26.7296 41.8614 26.7812 41.6045 26.6574 41.4092C26.6471 41.3989 26.6368 41.3784 26.6265 41.3681C26.6678 41.2961 26.6884 41.2139 26.6574 41.1317C26.6059 40.9878 26.4409 40.9159 26.3068 40.9672C26.1831 41.0084 26.1212 41.1317 26.1315 41.255C26.1212 41.2653 26.1006 41.2653 26.0903 41.2756C25.8943 41.3989 25.8428 41.6559 25.9665 41.8511C26.0903 42.0464 26.3481 42.1184 26.5337 41.9847ZM24.1618 45.9211C24.0381 46.0033 23.9968 46.1781 24.0793 46.3014C24.1618 46.4247 24.3371 46.4658 24.4609 46.3836C24.5537 46.322 24.5949 46.2089 24.5846 46.1061C24.6362 46.1164 24.6981 46.1061 24.7496 46.0958C24.7496 46.1472 24.7599 46.1986 24.7909 46.2397C24.8734 46.3631 25.0487 46.4042 25.1724 46.322C25.2962 46.2397 25.3374 46.065 25.2549 45.9417C25.2137 45.8903 25.1621 45.8492 25.1003 45.8286C25.2034 45.6333 25.1724 45.3764 24.9971 45.212C24.7909 45.0167 24.4712 45.027 24.2753 45.2428C24.1103 45.4175 24.0999 45.6847 24.234 45.88C24.2031 45.9006 24.1824 45.9006 24.1618 45.9211ZM24.2856 52.2831C24.2959 52.242 24.3062 52.2111 24.3062 52.17C24.4196 52.17 24.5124 52.0981 24.5537 51.9953C24.6053 51.8514 24.5331 51.6972 24.3887 51.6458C24.2443 51.5945 24.0896 51.6664 24.0381 51.8103C24.0381 51.8206 24.0381 51.8308 24.0381 51.8411C23.8731 51.8103 23.7081 51.8925 23.6565 52.057C23.5946 52.2317 23.6874 52.427 23.8628 52.4886C24.0278 52.5503 24.2237 52.4681 24.2856 52.2831ZM23.4296 49.5903C23.3678 49.765 23.4606 49.9603 23.6359 50.0322C23.8112 50.0939 24.0071 50.0014 24.0793 49.8267C24.1412 49.652 24.0484 49.4567 23.8731 49.3847C23.6874 49.3231 23.4915 49.4053 23.4296 49.5903ZM23.1821 54.5134C23.2749 54.39 23.2543 54.2256 23.1409 54.1228C23.0171 54.0303 22.8521 54.0508 22.749 54.1639C22.7078 54.2153 22.6974 54.2667 22.6974 54.3283C22.4293 54.1125 22.0271 54.1639 21.8209 54.4311C21.6043 54.6983 21.6456 55.0992 21.924 55.315C22.1921 55.5309 22.5943 55.4897 22.8109 55.2122C22.9553 55.0272 22.9759 54.8011 22.9037 54.5956C22.9965 54.6264 23.1099 54.5956 23.1821 54.5134ZM18.4281 57.977C18.5828 57.7817 18.5518 57.4939 18.3559 57.3397C18.1599 57.1856 17.8712 57.2164 17.7165 57.4117C17.5618 57.607 17.5928 57.8947 17.7887 58.0489C17.9846 58.2133 18.2734 58.1722 18.4281 57.977ZM22.1406 44.5234C22.4087 44.7392 22.8006 44.6878 23.0171 44.4206C23.2337 44.1534 23.1821 43.7628 22.914 43.547C22.6459 43.3311 22.254 43.3825 22.0374 43.6497C21.8312 43.917 21.8724 44.3075 22.1406 44.5234ZM17.6649 56.6511C17.7887 56.7436 17.9537 56.7231 18.0568 56.61C18.1496 56.4867 18.129 56.3222 18.0156 56.2195C17.8918 56.127 17.7268 56.1475 17.6237 56.2606C17.5206 56.3839 17.5412 56.5586 17.6649 56.6511ZM19.6656 57.0725C19.5728 57.1958 19.5934 57.3603 19.7068 57.4631C19.8306 57.5556 19.9956 57.535 20.0987 57.422C20.1915 57.2986 20.1709 57.1342 20.0574 57.0314C19.9337 56.9286 19.7584 56.9492 19.6656 57.0725ZM17.6753 59.7859C17.6856 59.7653 17.6959 59.755 17.7062 59.7345C17.8506 59.7859 18.0156 59.7447 18.1084 59.6111C18.2321 59.457 18.2115 59.2206 18.0465 59.0972C17.8918 58.9739 17.6546 58.9945 17.5309 59.1589C17.4896 59.2103 17.4587 59.2822 17.4587 59.3439C17.3762 59.3439 17.304 59.3747 17.2524 59.4467C17.1596 59.57 17.1803 59.7345 17.2937 59.8372C17.4071 59.9195 17.5824 59.9092 17.6753 59.7859ZM16.9431 57.7611C17.0359 57.5761 16.9637 57.3603 16.7781 57.2678C16.5924 57.1753 16.3759 57.2472 16.2831 57.4322C16.1903 57.6172 16.2624 57.8331 16.4481 57.9256C16.6234 58.0181 16.8503 57.9461 16.9431 57.7611ZM23.0274 59.4878L23.2234 58.9842C23.1099 58.9636 22.9862 59.015 22.9243 59.1281C22.8521 59.2514 22.9037 59.4158 23.0274 59.4878ZM24.4403 55.8597C24.4196 55.8186 24.3784 55.7775 24.3268 55.757C24.1928 55.685 24.0278 55.7364 23.9556 55.8803C23.8834 56.0139 23.9453 56.1783 24.0793 56.2503C24.1515 56.2811 24.2237 56.2914 24.2856 56.2708L24.4403 55.8597ZM24.1515 56.61L24.2649 56.3325C24.2546 56.3222 24.2443 56.3222 24.234 56.312C24.0793 56.2297 23.8834 56.2914 23.8009 56.4558C23.7803 56.497 23.7699 56.5381 23.7699 56.5895C23.7596 56.7128 23.8215 56.8361 23.9453 56.8978C23.9762 56.9081 24.0071 56.9286 24.0381 56.9286L24.1515 56.61ZM18.7168 55.3561C18.8921 55.1403 18.8509 54.8217 18.6343 54.647C18.4178 54.4722 18.0981 54.5133 17.9228 54.7292C17.7474 54.945 17.7887 55.2636 18.0053 55.4384C18.2218 55.6131 18.5415 55.572 18.7168 55.3561ZM16.7987 61.9442C16.9121 61.8003 16.8812 61.605 16.7471 61.492C16.6853 61.4406 16.6028 61.42 16.5306 61.42L16.314 61.9545C16.3243 61.9647 16.3346 61.975 16.3449 61.9853C16.4893 62.0983 16.6956 62.0778 16.7987 61.9442ZM16.4481 62.4992C16.4171 62.3758 16.3243 62.2731 16.2006 62.2525L15.9737 62.8075L15.9634 62.8281L15.8499 63.1056L15.8087 63.1981C15.8603 63.3009 15.9737 63.3522 16.0974 63.3317C16.2418 63.3008 16.3449 63.157 16.314 63.0131C16.3037 62.9514 16.2728 62.9 16.2315 62.8692C16.3862 62.8178 16.479 62.6636 16.4481 62.4992ZM16.4996 63.157C16.3553 63.1878 16.2521 63.3317 16.2831 63.4756C16.314 63.6195 16.4584 63.7222 16.6028 63.6914C16.7471 63.6606 16.8503 63.5167 16.8193 63.3728C16.7884 63.2186 16.644 63.1261 16.4996 63.157ZM16.7781 63.9484C16.6646 64.1025 16.6956 64.3286 16.8503 64.4417C17.0049 64.5547 17.2318 64.5239 17.3453 64.3697C17.4587 64.2156 17.4278 63.9895 17.2731 63.8764C17.2318 63.8456 17.1906 63.8353 17.1493 63.8147C17.2009 63.8147 17.2628 63.8147 17.304 63.7839C17.4278 63.7017 17.469 63.5475 17.3865 63.4242C17.304 63.3008 17.1493 63.2597 17.0256 63.342C16.9018 63.4242 16.8606 63.5783 16.9431 63.7017C16.974 63.7531 17.0359 63.7942 17.0874 63.8147C16.9843 63.7942 16.8606 63.8456 16.7781 63.9484ZM12.4056 73.3011C12.5603 73.3525 12.7356 73.3011 12.8387 73.1675C12.9624 73.0031 12.9315 72.7564 12.7562 72.6331C12.7046 72.592 12.6531 72.5714 12.5912 72.5611C12.5706 72.52 12.5396 72.4789 12.4984 72.4481C12.354 72.3453 12.1581 72.3761 12.0549 72.52C12.0446 72.5303 12.0446 72.5406 12.0343 72.5508C12.024 72.5406 12.0137 72.52 11.9931 72.5097L11.7868 73.0134L11.6115 73.445L11.4156 73.9281L11.3949 73.9897L10.9824 75.0072C11.0031 75.0278 11.0237 75.0381 11.0443 75.0586C11.2299 75.1922 11.4568 75.2128 11.6528 75.1306C11.6631 75.1409 11.6734 75.1614 11.694 75.1717C11.8281 75.2642 12.0137 75.2436 12.1168 75.11C12.1478 75.0689 12.1581 75.0278 12.1684 74.9867L12.1787 74.997C12.3128 75.0895 12.4984 75.0689 12.6015 74.9353C12.6428 74.8839 12.6531 74.812 12.6531 74.7503C12.8696 74.8325 13.1274 74.7708 13.2718 74.5756C13.4471 74.3392 13.3956 74.0103 13.1584 73.8458C12.9212 73.6711 12.5912 73.7225 12.4159 73.9589C12.3024 74.1131 12.2921 74.3083 12.354 74.4728C12.2612 74.4728 12.1684 74.5139 12.1168 74.5858C12.0859 74.627 12.0756 74.6681 12.0653 74.7092L12.0549 74.6989C12.0446 74.6886 12.0343 74.6886 12.0343 74.6886C12.0859 74.4625 11.9931 74.2158 11.7971 74.0617C11.9209 74.0308 12.0343 73.9589 12.1168 73.8561C12.2199 73.7122 12.2406 73.5375 12.1993 73.3833C12.2612 73.3731 12.3437 73.3422 12.4056 73.3011ZM13.2512 76.3639C13.2512 76.3536 13.2512 76.3536 13.2512 76.3639C13.3853 76.1686 13.344 75.8911 13.1481 75.7472C12.9521 75.6033 12.6634 75.6445 12.519 75.8397C12.4881 75.8809 12.4674 75.9322 12.4468 75.9836C12.4262 75.9631 12.4056 75.9322 12.3746 75.9117C12.3231 75.8706 12.2612 75.85 12.1993 75.8397C12.1787 75.7986 12.1581 75.7678 12.1168 75.737C11.9931 75.6445 11.8281 75.6753 11.7353 75.7883C11.6321 75.7678 11.529 75.8089 11.4568 75.8911C11.4465 75.9117 11.4362 75.9322 11.4259 75.9528C11.364 75.9425 11.3124 75.9528 11.2506 75.9734C11.199 75.9528 11.1578 75.9425 11.1062 75.9425C11.0753 75.737 10.9721 75.5417 10.8071 75.4081L10.2503 76.775H10.5596H10.6628H11.4053H11.6424H11.9312C11.9209 76.7236 11.8796 76.6722 11.8281 76.6311C11.7765 76.59 11.7146 76.5797 11.6631 76.5797C11.6631 76.5078 11.6424 76.4256 11.6115 76.3536C11.6218 76.3433 11.6218 76.3228 11.6321 76.3125C11.6424 76.3125 11.6528 76.3125 11.6734 76.3125C11.6837 76.4256 11.7456 76.5386 11.8487 76.6106C12.0446 76.7545 12.3024 76.7133 12.4571 76.5386C12.4674 76.5592 12.4881 76.5797 12.5087 76.59C12.519 76.6003 12.5396 76.6003 12.5499 76.6106C12.5293 76.6311 12.5087 76.6517 12.4881 76.6722C12.4674 76.7031 12.4468 76.7339 12.4365 76.775H12.9315H13.2615H13.3131C13.3234 76.7647 13.3337 76.7545 13.344 76.7442C13.4368 76.6208 13.4059 76.4461 13.2821 76.3536C13.2718 76.3742 13.2615 76.3639 13.2512 76.3639ZM15.1487 76.6106C15.2209 76.477 15.1899 76.3125 15.0662 76.22C14.9321 76.1172 14.7362 76.1481 14.6434 76.2817C14.6021 76.3331 14.5918 76.3947 14.5918 76.4564C14.5815 76.4461 14.5712 76.4358 14.5609 76.4256C14.5299 76.405 14.499 76.3845 14.4681 76.3742C14.4681 76.3742 14.4681 76.3742 14.4578 76.3742C14.5093 76.3536 14.5609 76.3331 14.5918 76.2817C14.6846 76.1583 14.6537 75.9836 14.5299 75.8911C14.5196 75.8911 14.5196 75.8911 14.5093 75.8808C14.5299 75.7061 14.4578 75.5314 14.3237 75.4183C14.499 75.4286 14.6743 75.3464 14.7878 75.2025C14.8393 75.1306 14.8703 75.0586 14.8806 74.9867C14.9012 74.9661 14.9321 74.9558 14.9528 74.925C15.0456 74.7914 15.0249 74.6064 14.8909 74.5036C14.829 74.4625 14.7568 74.442 14.6846 74.4522C14.4474 74.2775 14.1071 74.3289 13.9215 74.5653C13.7565 74.7914 13.7978 75.1203 14.0143 75.295C13.839 75.2847 13.6637 75.367 13.5503 75.5108C13.3749 75.7472 13.4265 76.0864 13.6637 76.2714C13.7462 76.3331 13.8493 76.3639 13.9524 76.3742C13.8596 76.4153 13.7771 76.477 13.7153 76.5695C13.6637 76.6414 13.6224 76.7236 13.6121 76.8058H14.7362H14.7981H15.3137C15.2931 76.7442 15.2621 76.6825 15.2003 76.6414C15.1796 76.6311 15.159 76.6208 15.1487 76.6106ZM11.1578 75.4389C11.0753 75.5622 11.0959 75.7267 11.2196 75.8089C11.3434 75.8911 11.5084 75.8706 11.5909 75.7472C11.6734 75.6239 11.6528 75.4595 11.529 75.3772C11.4156 75.295 11.2403 75.3258 11.1578 75.4389ZM14.1793 67.9464C14.2721 67.8231 14.2412 67.6586 14.1278 67.5661C14.1071 67.5456 14.0762 67.5353 14.0453 67.525L13.839 68.0286C13.9524 68.08 14.0968 68.0492 14.1793 67.9464ZM13.7668 68.4603C13.839 68.3678 13.839 68.2547 13.7771 68.1622L13.6121 68.5631C13.674 68.5528 13.7256 68.5117 13.7668 68.4603ZM16.314 65.675C16.4274 65.7572 16.5924 65.7367 16.6853 65.6339C16.7678 65.6133 16.8503 65.5722 16.9121 65.49C17.0359 65.3256 16.9946 65.0995 16.8296 64.9761C16.6646 64.8528 16.4378 64.8939 16.314 65.0583C16.2624 65.1303 16.2315 65.2228 16.2418 65.3153C16.1696 65.4283 16.2006 65.5928 16.314 65.675ZM23.3265 40.3814C23.244 40.3197 23.1203 40.33 23.0584 40.4122C22.9965 40.4945 23.0068 40.6178 23.0893 40.6795C23.1718 40.7411 23.2956 40.7309 23.3574 40.6486C23.4193 40.5664 23.409 40.4431 23.3265 40.3814ZM13.4059 49.4361C13.4987 49.3128 13.4781 49.1484 13.3646 49.0456C13.2409 48.9531 13.0759 48.9736 12.9728 49.0867C12.8696 49.1997 12.9006 49.3745 13.014 49.4772C13.1378 49.5697 13.3131 49.5492 13.4059 49.4361ZM11.2609 54.832C11.1371 54.7395 10.9721 54.76 10.869 54.8731C10.7762 54.9964 10.7968 55.1609 10.9103 55.2636C11.034 55.3561 11.199 55.3356 11.3021 55.2225C11.4053 55.0992 11.3846 54.9245 11.2609 54.832ZM17.0153 42.8481C17.1081 42.7247 17.0874 42.5603 16.974 42.4575C16.8503 42.365 16.6853 42.3856 16.5821 42.4986C16.4893 42.622 16.5099 42.7864 16.6234 42.8892C16.7471 42.9817 16.9121 42.9611 17.0153 42.8481ZM23.079 56.9389C23.2028 56.7847 23.1718 56.5586 23.0171 56.4353C22.8624 56.312 22.6356 56.3428 22.5118 56.497C22.3881 56.6511 22.419 56.8772 22.5737 57.0006C22.7284 57.1239 22.9553 57.0931 23.079 56.9389ZM23.8318 57.422L23.9453 57.1239C23.8112 57.0211 23.6359 57.0211 23.5018 57.1136C23.4709 57.1342 23.4399 57.165 23.4193 57.1958C23.3368 57.2986 23.3162 57.4322 23.3574 57.5453C23.2337 57.535 23.1099 57.607 23.0584 57.72C22.9862 57.8536 23.0274 58.0181 23.1409 58.1106C23.0996 58.2545 23.1409 58.4292 23.2646 58.532C23.2956 58.5628 23.3368 58.5833 23.3781 58.5936L23.5843 58.0695L23.6565 57.8947V57.8845C23.6565 57.8639 23.6565 57.8331 23.6462 57.8125C23.6565 57.8125 23.6668 57.8228 23.6771 57.8228L23.8318 57.422ZM20.9443 56.9081C21.1506 57.0725 21.4496 57.0314 21.6146 56.8361C21.7796 56.6306 21.7384 56.3325 21.5424 56.1681C21.3362 56.0036 21.0371 56.0447 20.8721 56.24C20.7071 56.4559 20.7381 56.7539 20.9443 56.9081ZM22.5634 57.8228C22.7387 57.607 22.6974 57.2884 22.4809 57.1136C22.4706 57.0314 22.4396 56.9492 22.3571 56.8875C22.2231 56.7745 22.0168 56.8053 21.9137 56.9389C21.8724 56.9903 21.8518 57.052 21.8415 57.1136C21.8106 57.1342 21.7899 57.165 21.759 57.1958C21.6559 57.3192 21.6353 57.4733 21.6662 57.6172C21.6043 57.6378 21.5424 57.6686 21.5012 57.72C21.4393 57.792 21.429 57.8845 21.4496 57.977C21.3878 57.9872 21.3259 58.0181 21.2846 58.0695C21.1918 58.1825 21.2124 58.347 21.3259 58.4395C21.4393 58.532 21.6043 58.5114 21.6971 58.3983C21.7178 58.3778 21.7178 58.3572 21.7281 58.3264C21.7487 58.3778 21.7796 58.4292 21.8209 58.4703C21.9549 58.5731 22.1509 58.5525 22.254 58.4189C22.3571 58.2956 22.3365 58.1209 22.2231 58.0078C22.3571 57.9872 22.4809 57.9256 22.5634 57.8228ZM23.0996 56.055C23.2337 56.1681 23.4399 56.1372 23.5431 56.0036C23.6565 55.87 23.6256 55.6645 23.4915 55.5617C23.3574 55.4486 23.1512 55.4795 23.0481 55.6131C22.9346 55.7467 22.9553 55.942 23.0996 56.055ZM18.954 57.2472C19.1087 57.3706 19.3459 57.35 19.4696 57.1856C19.5934 57.0314 19.5728 56.795 19.4078 56.6717C19.2531 56.5484 19.0159 56.5689 18.8921 56.7333C18.7684 56.8875 18.7993 57.1239 18.954 57.2472ZM21.1196 50.8545C20.8928 50.7722 20.6349 50.8853 20.5524 51.1217C20.4699 51.3478 20.5834 51.6047 20.8206 51.687C21.0474 51.7692 21.3053 51.6561 21.3878 51.4197C21.4703 51.1936 21.3568 50.9367 21.1196 50.8545ZM15.8087 55.5103C15.7571 55.6542 15.8293 55.8083 15.9737 55.87C16.1181 55.9214 16.2728 55.8495 16.3346 55.7056C16.3862 55.5617 16.314 55.4075 16.1696 55.3458C16.0149 55.2945 15.8603 55.3664 15.8087 55.5103ZM15.3446 47.1647C15.489 47.2161 15.6437 47.1442 15.7056 47.0003C15.7571 46.8564 15.6849 46.7022 15.5406 46.6406C15.3962 46.5892 15.2415 46.6611 15.1796 46.805C15.1281 46.9592 15.2003 47.1133 15.3446 47.1647ZM13.9215 48.6242C14.0659 48.6756 14.2206 48.6036 14.2824 48.4597C14.334 48.3158 14.2618 48.1617 14.1174 48.1C13.9731 48.0486 13.8184 48.1206 13.7565 48.2645C13.7049 48.4186 13.7771 48.5728 13.9215 48.6242ZM43.3018 76.7956H37.269L36.0521 73.5992H18.4178H17.9331H17.8506H17.5309L17.5206 73.63L17.3453 74.072L17.2834 74.2364L17.1596 74.5653L17.0049 74.9456L16.8503 75.3361L16.7368 75.6342L16.644 75.8706L16.5203 76.1892L16.3965 76.5078L16.2831 76.7956H16.1799H15.9015H15.5096C15.5096 76.7339 15.5303 76.6722 15.5715 76.6106C15.5921 76.5797 15.6231 76.5489 15.654 76.5283C15.6024 76.4256 15.5715 76.3125 15.5715 76.1995C15.5199 76.1892 15.4684 76.1686 15.4168 76.1378C15.4168 76.1378 15.4168 76.1378 15.4065 76.1275C15.3034 76.1995 15.1693 76.1995 15.0662 76.1275C14.9321 76.035 14.9115 75.85 15.0043 75.7164C15.0868 75.6033 15.2518 75.5725 15.3756 75.6342C15.3859 75.6239 15.4065 75.6033 15.4168 75.5931C15.3137 75.4903 15.2828 75.3258 15.3756 75.2128C15.4684 75.0792 15.654 75.0586 15.7881 75.1511C15.8087 75.1717 15.8293 75.1922 15.8396 75.2128C15.8912 75.1717 15.9428 75.1409 16.0046 75.1203C16.0046 74.9764 16.0562 74.8325 16.149 74.7092C16.1903 74.6578 16.2315 74.6167 16.2728 74.5756C16.2418 74.4831 16.2212 74.3803 16.2315 74.2878C16.2315 74.2878 16.2315 74.2981 16.2212 74.2981C16.1696 74.37 16.0871 74.4214 16.0046 74.4522C16.0871 74.5653 16.0871 74.7195 16.0046 74.8428C15.8912 74.9867 15.6849 75.0278 15.5406 74.9147C15.3962 74.8017 15.3549 74.5961 15.4684 74.4522C15.489 74.4214 15.5199 74.3906 15.5612 74.37C15.489 74.3083 15.4478 74.2261 15.4168 74.1439C15.3034 74.2467 15.1178 74.2672 14.994 74.1645C14.8496 74.0514 14.8084 73.8458 14.9218 73.702C14.9424 73.6711 14.9631 73.6506 14.994 73.63C14.9734 73.517 14.994 73.3936 15.0662 73.2908C15.1899 73.1161 15.4271 73.075 15.6128 73.1778C15.6231 73.1572 15.6334 73.147 15.6437 73.1264C15.6128 73.0956 15.5715 73.0545 15.5509 73.0134C15.4168 73.075 15.2621 73.0545 15.1384 72.9722C14.994 72.8695 14.9424 72.6947 14.9837 72.5406C14.9218 72.5406 14.8599 72.52 14.8084 72.4892C14.8187 72.5714 14.7981 72.6639 14.7465 72.7359C14.664 72.8489 14.5196 72.9003 14.3959 72.8695C14.3753 72.9311 14.3443 73.0031 14.3031 73.0545C14.334 73.147 14.3237 73.2497 14.2618 73.332C14.2309 73.3731 14.1896 73.4039 14.1484 73.4245C14.1587 73.4964 14.1484 73.5786 14.1174 73.6506C14.2206 73.6095 14.3443 73.6197 14.4371 73.6917C14.5918 73.8047 14.6228 74.0103 14.5093 74.1645C14.4062 74.2981 14.2206 74.3392 14.0762 74.257C13.9937 74.3083 13.8803 74.2981 13.7978 74.2364C13.6946 74.1542 13.6637 74.0206 13.7256 73.9075C13.6224 73.9075 13.5296 73.887 13.4471 73.8253C13.2512 73.6814 13.1996 73.4039 13.3543 73.1983C13.3543 73.1881 13.3646 73.1881 13.3749 73.1778C13.2099 73.0442 13.1378 72.8489 13.1481 72.6536C13.0862 72.5611 13.0862 72.4275 13.1584 72.335C13.2099 72.2733 13.2821 72.2322 13.3543 72.222C13.4162 72.1603 13.4884 72.1192 13.5709 72.0884C13.4678 72.0575 13.3646 72.0164 13.2821 71.9445C13.2409 71.9136 13.1996 71.8725 13.1584 71.8314C13.1481 71.8622 13.1378 71.8828 13.1171 71.9136C13.0449 72.0061 12.9418 72.0472 12.8284 72.037C12.8181 72.0884 12.7974 72.1397 12.7665 72.1808C12.6428 72.3453 12.4056 72.3864 12.2303 72.2631C12.1993 72.2425 12.1787 72.2117 12.1478 72.1911L12.3953 71.5847C12.4571 71.5745 12.519 71.5847 12.5706 71.595C12.5809 71.5745 12.5912 71.5642 12.6015 71.5436C12.6737 71.4408 12.8078 71.3997 12.9212 71.4203C12.9109 71.3792 12.9006 71.3278 12.8903 71.2867C12.8284 71.3175 12.7665 71.3381 12.6943 71.3586C12.6221 71.3792 12.5499 71.3689 12.4881 71.3484L12.9418 70.2383C13.0449 70.3 13.1171 70.3925 13.1687 70.5056C13.2409 70.4336 13.3131 70.3822 13.3956 70.3411C13.3543 70.2795 13.3337 70.2075 13.3234 70.1356C13.2409 70.2383 13.0862 70.2692 12.9624 70.2075L13.1171 69.8375L13.1893 69.6731L13.6018 68.6761C13.674 68.6967 13.7462 68.7275 13.8081 68.7789C13.8699 68.82 13.9215 68.8817 13.9628 68.9433C14.0659 68.8817 14.1999 68.8817 14.3031 68.9536C14.4268 69.0461 14.4578 69.2208 14.3753 69.3545C14.4062 69.375 14.4474 69.3853 14.4784 69.4161C14.8084 69.6525 14.8703 70.115 14.6331 70.4336C14.6021 70.4747 14.5712 70.5056 14.5403 70.5364C14.5918 70.5981 14.6434 70.6597 14.6846 70.7214C14.6949 70.7008 14.7053 70.6906 14.7156 70.67C14.7981 70.557 14.9424 70.5056 15.0765 70.5158C15.0456 70.4542 15.0353 70.3925 15.0456 70.3308C15.0043 70.3206 14.9631 70.3103 14.9218 70.2795C14.7878 70.187 14.7568 69.9917 14.8599 69.8581C14.8703 69.8375 14.8909 69.8272 14.9115 69.8067C14.8599 69.7656 14.829 69.7245 14.7981 69.6731C14.7774 69.6628 14.7568 69.6628 14.7465 69.6525C14.6124 69.56 14.5815 69.3647 14.6846 69.2311C14.7259 69.1797 14.7878 69.1386 14.8393 69.1283C14.8187 69.0667 14.8084 69.005 14.8187 68.9433C14.7156 68.8406 14.7053 68.6864 14.7878 68.5631C14.8084 68.5425 14.829 68.522 14.8496 68.5014C14.8393 68.5014 14.8187 68.5014 14.8084 68.5014C14.664 68.4603 14.5712 68.3164 14.6124 68.1725C14.6537 68.0286 14.7981 67.9361 14.9424 67.9772C15.0868 68.0184 15.1796 68.1622 15.1384 68.3061C15.1281 68.3678 15.0868 68.4089 15.0456 68.45C15.0971 68.45 15.159 68.4706 15.2106 68.5014C15.2828 68.4911 15.3653 68.4911 15.4478 68.5117C15.4684 68.4603 15.489 68.4192 15.5199 68.3781C15.6128 68.2547 15.7365 68.1725 15.8809 68.1314C15.8293 67.9772 15.8499 67.8128 15.9531 67.6792C15.9634 67.6586 15.9737 67.6483 15.9943 67.6381C15.7778 67.6792 15.5509 67.6278 15.3653 67.4942C15.2931 67.4428 15.2415 67.3811 15.1899 67.3195C15.1074 67.3708 15.0146 67.3914 14.9218 67.3811C14.7774 67.5764 14.5093 67.6175 14.3237 67.4736C14.2618 67.4325 14.2206 67.3709 14.1896 67.3092L14.4268 66.7234C14.4887 66.7028 14.5506 66.6925 14.6124 66.6925C14.6124 66.6925 14.6124 66.6925 14.6228 66.6822C14.5712 66.6308 14.5403 66.5692 14.5093 66.5075L14.8187 65.7572L14.8496 65.6853L15.1693 64.9042L15.2931 64.5958L15.3859 64.38C15.4581 64.452 15.489 64.565 15.4684 64.6678C15.4787 64.6781 15.4993 64.6883 15.5096 64.6986C15.6024 64.7706 15.6643 64.8528 15.7159 64.9453C15.8087 64.9145 15.9118 64.935 15.9943 64.9967C16.1387 65.0995 16.1696 65.2947 16.0665 65.4386C15.9737 65.562 15.819 65.5928 15.6849 65.5414C15.6746 65.562 15.6643 65.5825 15.654 65.5928C15.6024 65.6647 15.5406 65.7161 15.4684 65.7572H15.4787C15.5303 65.7983 15.5818 65.8395 15.6231 65.9011C15.6334 65.8497 15.6437 65.7983 15.6746 65.7572C15.7778 65.6236 15.9737 65.5928 16.1078 65.6956C16.2212 65.7778 16.2624 65.932 16.2006 66.0656C16.2521 66.0861 16.3037 66.117 16.3553 66.1581C16.4584 66.2403 16.5409 66.3328 16.5924 66.4458C16.6131 66.4561 16.6337 66.4561 16.6543 66.4767C16.7884 66.5692 16.8193 66.7542 16.7265 66.8878C16.7471 66.8981 16.7574 66.9083 16.7781 66.9186C16.9018 67.0111 16.9534 67.1653 16.9121 67.3092C16.9431 67.2989 16.9843 67.2886 17.0153 67.2783C17.0153 67.2167 17.0256 67.1447 17.0668 67.0933C17.1699 66.9597 17.3556 66.9289 17.4896 67.0214C17.4793 66.9597 17.469 66.8981 17.4793 66.8467C17.3762 66.8467 17.2731 66.8158 17.1906 66.7542C17.0668 66.6617 17.0049 66.5281 16.9946 66.3842C16.8915 66.4561 16.7471 66.4664 16.6337 66.3842C16.4996 66.2814 16.4687 66.0861 16.5718 65.9525C16.6234 65.8909 16.6853 65.8497 16.7574 65.8395C16.7678 65.8292 16.7678 65.8086 16.7781 65.7983C16.8503 65.6956 16.974 65.6545 17.0978 65.6853C17.0771 65.6031 17.0978 65.5106 17.1493 65.4386C17.1699 65.4078 17.1906 65.3975 17.2215 65.377C17.0565 65.1817 17.0462 64.8939 17.2009 64.6781C17.3865 64.4211 17.7371 64.3697 17.9949 64.5547C18.1187 64.6472 18.2012 64.7808 18.2218 64.9247C18.2321 64.822 18.2631 64.7295 18.3249 64.6472C18.4384 64.4931 18.6137 64.4108 18.789 64.4211C18.6859 64.2567 18.6859 64.0408 18.8096 63.8764C18.9746 63.6606 19.284 63.6092 19.5006 63.7736C19.6965 63.9175 19.7584 64.1745 19.6553 64.3903C19.6553 64.38 19.6656 64.38 19.6656 64.3697C19.7481 64.267 19.8615 64.195 19.9853 64.1847C19.9234 64.1847 19.8718 64.1642 19.8203 64.1231C19.6759 64.0203 19.6449 63.8147 19.7481 63.6708C19.8409 63.5372 20.0162 63.5064 20.1503 63.5783C20.2018 63.5578 20.2534 63.5475 20.3049 63.5578C20.3049 63.5475 20.3049 63.5372 20.3049 63.527C20.2328 63.5064 20.1503 63.4756 20.0884 63.4242C19.8203 63.2289 19.7687 62.8589 19.9646 62.602C20.1606 62.3347 20.5318 62.2834 20.7896 62.4786C20.8206 62.4992 20.8412 62.5197 20.8618 62.5403C20.8618 62.53 20.8721 62.53 20.8721 62.5197C20.8928 62.4889 20.9237 62.4581 20.9546 62.4375C20.8721 62.2936 20.8618 62.1189 20.9237 61.9647C20.9031 61.9647 20.8824 61.9647 20.8618 61.9647C20.9237 62.0881 20.8928 62.232 20.769 62.3039C20.6453 62.3861 20.4803 62.345 20.4081 62.2217C20.3256 62.0984 20.3668 61.9339 20.4906 61.862C20.5009 61.8517 20.5112 61.8517 20.5318 61.8517C20.5009 61.8311 20.4803 61.8208 20.4493 61.8003C20.2534 61.9133 20.0059 61.9031 19.8203 61.7592C19.779 61.7284 19.7481 61.6872 19.7171 61.6461C19.7171 61.6564 19.7068 61.6564 19.7068 61.6667C19.6243 61.7695 19.5006 61.8209 19.3768 61.8106C19.5109 61.9442 19.5315 62.16 19.4078 62.3142C19.2737 62.4786 19.0365 62.5095 18.8715 62.3759C18.8612 62.3656 18.8612 62.3656 18.8509 62.3553C18.8818 62.4683 18.8715 62.602 18.8199 62.715C18.8406 62.7356 18.8612 62.7664 18.8715 62.787C18.8818 62.7767 18.8818 62.7664 18.8921 62.7561C19.0056 62.6122 19.2118 62.5917 19.3562 62.7047C19.5006 62.8178 19.5212 63.0233 19.4078 63.1672C19.2943 63.3111 19.0984 63.3317 18.954 63.2289C18.9334 63.3317 18.9024 63.4242 18.8303 63.5064C18.6859 63.6914 18.4487 63.7633 18.2321 63.7222C18.2837 63.7633 18.3146 63.825 18.3353 63.8867C18.3662 64.0511 18.2631 64.2156 18.0981 64.2464C17.964 64.2772 17.8299 64.2053 17.7681 64.0922C17.7165 64.082 17.6649 64.0717 17.6237 64.0306C17.4793 63.9278 17.4484 63.7222 17.5515 63.5783C17.6237 63.4858 17.7268 63.4447 17.8403 63.4447C17.7474 63.3008 17.7165 63.1261 17.7578 62.9617C17.5206 63.1878 17.139 63.2084 16.8812 62.9925C16.5821 62.7561 16.5409 62.3347 16.7678 62.0367C16.9534 61.8003 17.2628 61.7283 17.5412 61.8208C17.5515 61.7797 17.5721 61.7386 17.6031 61.7078C17.7165 61.5742 17.9124 61.5434 18.0568 61.6564C18.1599 61.7386 18.2012 61.8722 18.1599 61.9956C18.3353 61.9236 18.5312 61.9442 18.6859 62.0675C18.7065 62.0881 18.7271 62.1086 18.7478 62.1292C18.7271 62.0264 18.7478 61.9031 18.8199 61.8208C18.9024 61.7181 19.0262 61.6667 19.1499 61.677C19.0571 61.5845 19.0159 61.4508 19.0468 61.3275C19.0365 61.3275 19.0262 61.3172 19.0159 61.3172C18.9953 61.3686 18.9643 61.4097 18.9334 61.4509C18.6859 61.7592 18.2218 61.8208 17.9124 61.5639C17.7681 61.4508 17.6856 61.2967 17.6546 61.1322C17.6134 61.1117 17.5721 61.0911 17.5412 61.0603C17.3659 60.9164 17.2731 60.7006 17.2834 60.495C17.2215 60.5464 17.139 60.5875 17.0565 60.5875C17.0668 60.68 17.0462 60.7725 16.9843 60.8547C16.9328 60.9164 16.8606 60.9575 16.7884 60.9781L16.9431 60.5875L16.9946 60.4539L17.2524 59.8167C17.2524 59.8167 17.2628 59.8167 17.2628 59.827C17.3556 59.8989 17.4071 60.0017 17.4174 60.1045C17.6546 59.8167 18.0671 59.7756 18.3559 60.0017C18.459 60.0839 18.5312 60.197 18.5724 60.31C18.6446 60.3408 18.7168 60.3717 18.789 60.4231C18.8818 60.495 18.9437 60.5772 18.9849 60.68C19.0984 60.6286 19.2428 60.6389 19.3459 60.7211C19.4387 60.7931 19.4903 60.9164 19.4799 61.0295C19.5315 61.0397 19.5831 61.0603 19.6243 61.1014C19.6243 61.1014 19.6243 61.1014 19.6346 61.1117C19.6553 61.0603 19.6759 61.0089 19.7171 60.9575C19.8409 60.8033 20.0265 60.7314 20.2121 60.752C20.2328 60.7006 20.2637 60.6595 20.2946 60.6183C20.3978 60.495 20.5215 60.4025 20.6659 60.3614C20.6659 60.3408 20.6556 60.3306 20.6556 60.31C20.6143 60.31 20.5731 60.2997 20.5421 60.2792C20.4699 60.2381 20.4184 60.1867 20.3874 60.1147C20.3153 60.125 20.2431 60.1045 20.1812 60.0634C20.0574 59.9709 20.0368 59.7961 20.1399 59.6728L20.1503 59.6625C20.0781 59.6522 20.0059 59.6214 19.944 59.5803C19.9234 59.57 19.9131 59.5495 19.8924 59.5392C19.9028 59.6831 19.8615 59.8372 19.7584 59.9606C19.6553 60.0942 19.5109 60.1661 19.3562 60.1867C19.3562 60.2483 19.3459 60.31 19.3046 60.3614C19.2118 60.4745 19.0365 60.495 18.9231 60.4025C18.8199 60.3203 18.7993 60.197 18.8509 60.0839C18.789 60.0839 18.7374 60.0633 18.6859 60.0325C18.5621 59.94 18.5415 59.7653 18.6446 59.642C18.6549 59.6317 18.6653 59.6214 18.6859 59.6111C18.6756 59.4672 18.7168 59.3233 18.8199 59.2L18.8303 59.1897C18.6859 59.2514 18.5209 59.2308 18.3971 59.1281C18.2115 58.9739 18.1806 58.7067 18.3249 58.5217C18.4796 58.3367 18.7478 58.3059 18.9334 58.4497C19.119 58.5936 19.1499 58.8506 19.0159 59.0356C19.2221 58.9328 19.4799 58.9431 19.6759 59.0972C19.7171 59.1281 19.7584 59.1692 19.7893 59.2206C19.7893 59.1281 19.8203 59.0458 19.8821 58.9739C19.9646 58.8608 20.0987 58.8095 20.2328 58.8095C20.1812 58.7889 20.1296 58.7581 20.0884 58.7272C19.8099 58.5011 19.7584 58.1003 19.9853 57.8228C20.0884 57.6995 20.2224 57.6172 20.3771 57.5967C20.3771 57.4836 20.4081 57.3603 20.4906 57.2678C20.6762 57.0314 21.0165 57.0006 21.2434 57.1856C21.4806 57.3706 21.5115 57.7097 21.3259 57.9359C21.264 58.0078 21.1918 58.0592 21.1196 58.09C21.1609 58.275 21.1299 58.4703 20.9959 58.6347C20.9856 58.645 20.9753 58.6553 20.9649 58.6656C21.0578 58.6758 21.1403 58.7067 21.2124 58.7683C21.3156 58.8506 21.3774 58.9636 21.3981 59.0767C21.4084 59.0458 21.4187 59.015 21.4393 58.9842C21.5321 58.8609 21.7074 58.8403 21.8312 58.9431C21.9343 59.0253 21.9549 59.1692 21.9034 59.2822C21.9859 59.2925 22.0787 59.3336 22.1509 59.3953C22.2024 59.4364 22.2437 59.4878 22.2746 59.5392C22.4293 59.3747 22.6871 59.3439 22.8728 59.4878C22.9449 59.5392 22.9965 59.6214 23.0171 59.7036L22.8212 60.2072L22.8006 60.2689L22.6149 60.752C22.5737 60.752 22.5324 60.7417 22.5015 60.7211C22.3674 60.6492 22.3159 60.4847 22.3778 60.3511C22.3984 60.31 22.4293 60.2689 22.4706 60.2484C22.419 60.2381 22.3778 60.2072 22.3365 60.1764C22.3159 60.1661 22.2953 60.1456 22.2849 60.125C22.2746 60.1456 22.2643 60.1661 22.254 60.1764C22.0684 60.4128 21.7178 60.4539 21.4806 60.2689C21.2434 60.0839 21.2021 59.7345 21.3878 59.4981C21.4187 59.457 21.4599 59.4261 21.5012 59.3953C21.4496 59.3542 21.429 59.3028 21.4084 59.2514C21.3981 59.3336 21.3671 59.4158 21.3053 59.4878C21.1299 59.7036 20.8103 59.7447 20.5937 59.57C20.5834 59.5597 20.5731 59.5495 20.5731 59.5495C20.5421 59.5803 20.5112 59.6111 20.4803 59.6317C20.5009 59.642 20.5215 59.6522 20.5421 59.6625C20.5524 59.6728 20.5628 59.6934 20.5834 59.7036C20.6762 59.6625 20.7793 59.6625 20.8824 59.7139C21.0268 59.7858 21.099 59.9606 21.0578 60.1147C21.0681 60.1147 21.0784 60.1147 21.099 60.125C21.2021 60.1764 21.2537 60.2895 21.2434 60.4025C21.3156 60.4231 21.3774 60.4642 21.4496 60.5053C21.5218 60.382 21.6765 60.3306 21.8106 60.3922C21.9446 60.4642 21.9962 60.6286 21.9343 60.7622C21.8931 60.8342 21.8312 60.8856 21.7487 60.8958C21.7693 60.9575 21.7796 61.0192 21.7899 61.0808C21.9446 61.05 22.1096 61.0706 22.254 61.1733C22.2437 61.1117 22.2437 61.0397 22.2746 60.9781C22.3365 60.865 22.4706 60.8033 22.5943 60.8445L22.4087 61.3275L22.089 62.1395L22.0787 62.16L22.0581 62.2114L21.9137 62.5711V62.5814L21.8003 62.8692L21.7899 62.8897L21.7693 62.9411L21.6559 63.2289L21.5115 63.5989L21.3981 63.897L21.0474 64.7808L21.0062 64.8939L20.8309 65.3461L20.5318 66.1067C20.3874 66.1067 20.2328 66.0656 20.109 65.9731C20.0059 65.9011 19.9337 65.7983 19.8821 65.6956C19.8718 65.7367 19.8512 65.7675 19.8306 65.8086C19.7996 65.8497 19.7687 65.8806 19.7274 65.9011C19.8718 66.045 19.9028 66.2814 19.7893 66.4561C19.8099 66.487 19.8203 66.5281 19.8306 66.5589C19.8306 66.5486 19.8409 66.5486 19.8409 66.5384C19.9131 66.4459 20.0162 66.3945 20.1296 66.4047C20.1399 66.3739 20.1606 66.3431 20.1812 66.3122C20.2637 66.2095 20.3874 66.1581 20.5112 66.1786L20.3771 66.5281L20.2843 66.7645L20.274 66.7953L20.1606 67.0728L19.9749 67.5456L19.8615 67.8436L19.7584 68.1006L19.614 68.4603H19.8306H20.0265H20.4596H34.1134L30.6278 59.7653L30.4731 59.385L30.2359 58.7683L30.1946 58.6553L29.9987 58.1517L29.9574 58.0489L29.6171 57.165L29.5862 57.0931L29.514 56.9183L29.3284 56.4558L29.1531 56.0139L29.0603 55.7672L28.6684 54.76C28.7199 54.7189 28.7818 54.6778 28.854 54.6572C29.0499 54.5853 29.2665 54.6058 29.4418 54.7086C29.4728 54.6367 29.514 54.575 29.5759 54.5134C29.5965 54.4928 29.6068 54.4825 29.6274 54.4722C29.6068 54.4311 29.5965 54.3797 29.5862 54.3283C29.5759 54.2358 29.6068 54.1433 29.6687 54.0714C29.7306 53.9892 29.8234 53.9378 29.9368 53.9275C30.1431 53.9172 30.3184 54.0714 30.339 54.277C30.339 54.3078 30.339 54.3386 30.3287 54.3695C30.3493 54.3797 30.3596 54.3797 30.3803 54.39C30.4421 54.4209 30.4937 54.462 30.5453 54.5031C30.6793 54.6367 30.7412 54.8011 30.7515 54.9759C30.7515 55.1609 30.6896 55.3356 30.5453 55.4795C30.4937 55.5308 30.4421 55.5617 30.3906 55.5925C30.4628 55.6645 30.5143 55.757 30.5556 55.8495C30.5865 55.9317 30.5968 56.0036 30.6071 56.0858C30.6896 55.8495 30.8753 55.6439 31.1434 55.5514C31.1434 55.5514 31.1434 55.5514 31.1537 55.5514C31.1124 55.3458 31.164 55.1095 31.329 54.9553L31.3393 54.945C31.4837 54.8011 31.6796 54.7497 31.8653 54.76C32.0096 54.7703 32.1437 54.832 32.2571 54.945L32.2674 54.9553C32.4943 55.1814 32.5253 55.5411 32.3499 55.7981C32.3293 55.8289 32.2984 55.8597 32.2674 55.8906C32.2468 55.9111 32.2365 55.9214 32.2159 55.9317C32.2468 55.9831 32.2674 56.0242 32.2881 56.0858C32.3087 56.1372 32.319 56.1989 32.3293 56.2503C32.3396 56.2503 32.3603 56.2606 32.3706 56.2606C32.5768 56.3325 32.7006 56.5381 32.6799 56.7539C32.7728 56.7334 32.8759 56.7539 32.9481 56.8259C33.0615 56.9389 33.0615 57.1239 32.9481 57.237C32.8346 57.35 32.649 57.35 32.5356 57.237C32.4943 57.1959 32.4737 57.1547 32.4634 57.1136C32.3396 57.1959 32.1849 57.2164 32.0406 57.165C32.0096 57.1547 31.989 57.1445 31.9581 57.1239C31.8962 57.165 31.8343 57.2061 31.7621 57.237C32.0818 57.422 32.2365 57.8125 32.1024 58.1722C32.0715 58.2545 32.0303 58.3161 31.9787 58.3778C32.1128 58.347 32.2674 58.3572 32.4015 58.4086C32.4324 58.4189 32.4634 58.4395 32.4943 58.4497C32.5871 58.4086 32.7006 58.4292 32.7728 58.5011C32.7212 58.3778 32.7418 58.2339 32.8346 58.1414C32.7109 58.0078 32.7109 57.792 32.8449 57.6583C32.979 57.5247 33.2059 57.5247 33.3399 57.6583C33.3606 57.6789 33.3709 57.6892 33.3812 57.7097C33.474 57.6789 33.5771 57.6583 33.6803 57.6789C33.8349 57.4734 34.1134 57.3808 34.3609 57.4734C34.4846 57.5145 34.5878 57.5967 34.6496 57.6995C34.8146 57.5556 35.0724 57.5658 35.2374 57.72C35.3509 57.8331 35.3818 57.9975 35.3406 58.1414C35.454 58.1517 35.5778 58.2031 35.6603 58.2853C35.7634 58.3881 35.8149 58.5114 35.8149 58.645L35.8459 58.5833L43.3018 76.7956ZM17.5618 67.2783C17.5618 67.34 17.5515 67.4017 17.5103 67.4634C17.4896 67.4942 17.4587 67.5147 17.4381 67.5353C17.4587 67.5764 17.4793 67.6278 17.4896 67.6792C17.5309 67.6689 17.5721 67.6586 17.6134 67.6586C17.6134 67.6381 17.6237 67.6278 17.6237 67.6072V67.597C17.6237 67.5867 17.634 67.5764 17.634 67.5661C17.6443 67.5456 17.6443 67.5353 17.6546 67.5147C17.6546 67.5147 17.6546 67.5147 17.6546 67.5045C17.6649 67.4839 17.6753 67.4634 17.6959 67.4428C17.6959 67.4325 17.7062 67.4325 17.7062 67.4222C17.7062 67.412 17.7165 67.412 17.7165 67.412C17.6959 67.4017 17.6649 67.3811 17.6443 67.3708C17.6134 67.3297 17.5824 67.3092 17.5618 67.2783ZM18.8612 67.0214C18.8612 67.0214 18.8612 67.0111 18.8612 67.0214C18.8715 67.0214 18.8921 67.0317 18.8921 67.042C18.8818 67.0317 18.8715 67.0214 18.8612 67.0214C18.8612 67.0111 18.8612 67.0111 18.8612 67.0214ZM18.7581 67.1447C18.7684 67.1447 18.7684 67.1345 18.7787 67.1345C18.789 67.1242 18.7993 67.1139 18.8096 67.1036C18.789 67.1139 18.7684 67.1242 18.7581 67.1447ZM18.7684 67.6381C18.7787 67.6381 18.789 67.6483 18.789 67.6483H18.7787L18.7684 67.6381ZM19.0159 67.1242C19.0262 67.1242 19.0365 67.1345 19.0468 67.1345C19.0365 67.1242 19.0262 67.1242 19.0159 67.1242ZM18.6859 67.1961C18.6859 67.1961 18.6756 67.1961 18.6756 67.2064C18.6756 67.2064 18.6756 67.2064 18.6859 67.1961ZM18.5724 67.2681C18.5828 67.2681 18.5931 67.2578 18.6034 67.2578C18.5931 67.2578 18.5828 67.2578 18.5724 67.2681ZM18.5621 67.2681C18.5518 67.2681 18.5518 67.2783 18.5415 67.2783C18.5518 67.2783 18.5518 67.2783 18.5621 67.2681ZM18.7374 67.6278C18.7478 67.6278 18.7478 67.6278 18.7581 67.6381C18.7478 67.6381 18.7374 67.6381 18.7374 67.6278ZM18.8406 67.6792C18.8406 67.6689 18.8303 67.6689 18.8406 67.6792C18.8303 67.6689 18.8303 67.6689 18.8199 67.6689C18.8303 67.6689 18.8303 67.6689 18.8406 67.6792ZM18.8509 67.0317C18.8406 67.042 18.8406 67.0522 18.8303 67.0522C18.8199 67.0625 18.8096 67.0728 18.7993 67.0831C18.8096 67.0728 18.8199 67.0625 18.8303 67.0522C18.8406 67.042 18.8509 67.0317 18.8509 67.0317ZM18.7168 67.1756C18.7065 67.1858 18.6962 67.1858 18.6962 67.1961L18.7065 67.1859L18.7168 67.1756ZM18.5003 67.2989C18.5003 67.2989 18.5106 67.2989 18.5003 67.2989V67.2989ZM18.8715 67.6895C18.8612 67.6792 18.8509 67.6792 18.8509 67.6792C18.8612 67.6895 18.8612 67.6895 18.8715 67.6895ZM19.3768 67.1447C19.3562 67.1447 19.3459 67.155 19.3253 67.155H19.3356C19.3562 67.1447 19.3665 67.1447 19.3768 67.1447ZM19.2221 67.1653C19.2324 67.1653 19.2428 67.1653 19.2531 67.1653C19.2428 67.1653 19.2324 67.1653 19.2221 67.1653ZM19.1499 67.155H19.1396C19.1499 67.155 19.1499 67.155 19.1499 67.155ZM18.8612 66.0861C18.8406 66.0861 18.8303 66.0861 18.8096 66.0861C18.7993 66.117 18.7787 66.1478 18.7684 66.1786C18.7993 66.2095 18.8303 66.2506 18.8612 66.2917C18.8509 66.2197 18.8509 66.1478 18.8612 66.0861ZM17.5618 72.1397C17.4999 72.1295 17.4381 72.1089 17.3762 72.0678C17.2112 71.9445 17.1803 71.7183 17.2937 71.5539C17.2628 71.5333 17.2421 71.5128 17.2215 71.4922C17.2112 71.5025 17.2112 71.5231 17.2009 71.5333C17.139 71.6156 17.0565 71.6772 16.9637 71.7183C16.9637 71.7183 16.974 71.7183 16.974 71.7286C17.1081 71.8211 17.1906 71.9547 17.2215 72.0986C17.2524 72.1089 17.2834 72.1295 17.3143 72.15C17.3453 72.1808 17.3762 72.2117 17.4071 72.2425C17.4587 72.2014 17.5103 72.1706 17.5618 72.1397ZM16.7781 68.1314C16.7574 68.1828 16.7368 68.2342 16.7059 68.2753C16.6749 68.3164 16.6337 68.3575 16.5821 68.3884C16.6337 68.4603 16.6749 68.5425 16.6956 68.635C16.8296 68.5939 16.974 68.5939 17.1081 68.6556C17.0462 68.5117 17.0359 68.3472 17.0978 68.1931C16.9946 68.2136 16.8812 68.1931 16.7781 68.1314ZM16.5924 67.5661C16.5821 67.5661 16.5821 67.5661 16.5718 67.5661L16.5821 67.5764C16.5924 67.5764 16.5924 67.5661 16.5924 67.5661ZM15.5921 69.3442C15.5818 69.3545 15.5715 69.3647 15.5612 69.375C15.6024 69.4983 15.5818 69.6422 15.4993 69.7553C15.4478 69.817 15.3962 69.8683 15.324 69.8992L15.4787 70.0122C15.5096 70.0225 15.5509 70.0328 15.5818 70.0533C15.5715 69.9814 15.5921 69.9095 15.6334 69.8478C15.6643 69.8067 15.7159 69.7759 15.7571 69.7553C15.6334 69.6628 15.5818 69.5086 15.6334 69.3647C15.6334 69.3647 15.6334 69.3647 15.6231 69.3647C15.6128 69.3545 15.6024 69.3442 15.5921 69.3442ZM15.3034 69.8992C15.324 69.93 15.324 69.9608 15.3343 69.9917C15.3756 69.9917 15.4168 69.9917 15.4478 70.002L15.3034 69.8992C15.3137 69.8992 15.3034 69.8992 15.3034 69.8992ZM15.9531 70.5672C15.9221 70.485 15.9324 70.3925 15.984 70.3103C16.0768 70.187 16.2418 70.1664 16.3656 70.2486C16.4893 70.3411 16.5099 70.5056 16.4274 70.6289C16.4068 70.6597 16.3862 70.6803 16.3553 70.6906C16.4274 70.6289 16.5099 70.5981 16.6028 70.5775C16.4584 70.4234 16.4378 70.187 16.5615 70.0122C16.6028 69.9608 16.644 69.9197 16.7059 69.8889C16.7059 69.8478 16.7059 69.8067 16.7162 69.7656C16.6543 69.745 16.5924 69.7142 16.5306 69.6731C16.4378 69.6011 16.3656 69.5086 16.3346 69.4161C16.3346 69.4161 16.3346 69.4161 16.3243 69.4161C16.3346 69.4984 16.314 69.5909 16.2624 69.6731C16.2109 69.745 16.1284 69.7964 16.0459 69.8067C16.1387 69.8992 16.1593 70.0431 16.0768 70.1561C15.9943 70.2589 15.8603 70.2897 15.7468 70.2383C15.7881 70.3514 15.7674 70.4747 15.6953 70.5775C15.7056 70.5981 15.7262 70.6083 15.7365 70.6289C15.7984 70.5981 15.8706 70.5775 15.9531 70.5672ZM17.0978 72.89C17.0978 72.8592 17.0978 72.8386 17.0978 72.8078C17.0668 72.8078 17.0359 72.8078 17.0049 72.7975C16.9946 72.8078 16.9843 72.8181 16.974 72.8181C16.974 72.8592 16.9637 72.9003 16.9534 72.9414C16.9946 72.9208 17.0462 72.9003 17.0978 72.89ZM17.8299 72.0575C17.8815 72.0472 17.9331 72.0472 17.9743 72.0472C17.9846 71.9753 18.0053 71.9034 18.0568 71.8314C18.0774 71.8109 18.0981 71.7903 18.1187 71.7697C18.1084 71.667 18.129 71.5539 18.1909 71.4717C18.294 71.3278 18.4693 71.2764 18.6343 71.3175C18.5931 71.1839 18.5724 71.0503 18.5724 70.9167C18.5621 70.9167 18.5621 70.9167 18.5518 70.9064C18.4281 70.8139 18.4074 70.6495 18.4899 70.5261C18.5415 70.4542 18.6343 70.4131 18.7271 70.4234C18.7478 70.3925 18.7581 70.3617 18.7787 70.3308C18.789 70.3103 18.8096 70.3 18.8199 70.2897C18.7684 70.2692 18.7271 70.2486 18.6756 70.2178C18.4074 70.0225 18.3456 69.6525 18.5518 69.3853C18.5621 69.375 18.5724 69.3647 18.5828 69.3442C18.5518 69.2722 18.5312 69.19 18.5209 69.1078C18.4178 69.1284 18.3249 69.1283 18.2218 69.0975C18.2837 69.2517 18.2631 69.4367 18.1599 69.5806C18.0878 69.6731 17.9949 69.7347 17.9021 69.7656C18.0156 69.9506 18.0156 70.187 17.8918 70.3822C17.9021 70.3822 17.9021 70.3822 17.9124 70.3925C17.9846 70.4439 18.0259 70.5364 18.0156 70.6186C18.2734 70.8139 18.3249 71.1839 18.1393 71.4511C18.0774 71.5333 18.0053 71.595 17.9228 71.6361C17.9846 71.7595 17.9743 71.9034 17.8918 72.0164C17.8712 72.0164 17.8506 72.037 17.8299 72.0575ZM19.7274 65.3358C19.7378 65.2433 19.7584 65.1406 19.8099 65.0583C19.7687 65.0481 19.7378 65.0275 19.6965 64.9967C19.6553 64.9659 19.614 64.9247 19.5831 64.8734C19.4903 64.9453 19.3768 64.9556 19.2737 64.9145C19.284 64.9761 19.2737 65.0481 19.2531 65.1097C19.284 65.1406 19.3046 65.1611 19.3253 65.192C19.4284 65.1611 19.5521 65.1714 19.6553 65.2433C19.6862 65.2845 19.7068 65.3153 19.7274 65.3358ZM20.3668 58.8711C20.3771 58.8814 20.3874 58.8917 20.4081 58.8917C20.4184 58.8814 20.4184 58.8711 20.4287 58.8711C20.4081 58.8711 20.3874 58.8711 20.3668 58.8711ZM17.9949 65.3975C18.0774 65.3461 18.1703 65.3256 18.2631 65.3256C18.2012 65.2536 18.1599 65.1611 18.1496 65.0686C18.1393 65.1714 18.1084 65.2639 18.0465 65.3461C18.0259 65.3667 18.0156 65.377 17.9949 65.3975ZM15.4581 72.2528C15.4787 72.1706 15.5096 72.0986 15.5612 72.0267C15.7056 71.8314 15.9221 71.7389 16.1387 71.7492C16.2006 71.7081 16.2624 71.667 16.3243 71.6361C16.2831 71.6053 16.2521 71.5642 16.2212 71.5333C16.0562 71.6156 15.8499 71.6156 15.6849 71.4922C15.6231 71.4408 15.5715 71.3792 15.5303 71.3175C15.5612 71.4511 15.5303 71.595 15.4478 71.7183C15.3653 71.8314 15.2415 71.9034 15.1074 71.9136C15.1281 71.9239 15.1487 71.9342 15.1693 71.9445C15.2724 72.0164 15.3137 72.1295 15.3034 72.2528C15.3653 72.2322 15.4065 72.2425 15.4581 72.2528ZM35.5984 59.0972C35.5881 59.1075 35.5881 59.1075 35.5984 59.0972C35.5881 59.1075 35.5881 59.1075 35.5984 59.0972ZM32.8346 58.5936C32.8553 58.6553 32.8553 58.7272 32.8243 58.7889C32.8656 58.8608 32.8862 58.9431 32.8965 59.0253C32.9893 58.9636 33.1028 58.9534 33.2059 58.9842C33.2987 58.902 33.4224 58.8609 33.5359 58.8814C33.5359 58.8814 33.5359 58.8814 33.5359 58.8711C33.474 58.8711 33.4224 58.8608 33.3606 58.8403C33.2678 58.8095 33.1956 58.7581 33.1337 58.6861C33.0409 58.717 32.9171 58.6758 32.8346 58.5936ZM34.1237 58.645C34.1856 58.7272 34.2062 58.8197 34.1856 58.9122C34.2371 58.9328 34.2887 58.9636 34.3403 59.0047C34.4228 59.087 34.464 59.2103 34.464 59.3234C34.5259 59.3439 34.5878 59.3747 34.6393 59.4261C34.6599 59.4467 34.6806 59.4672 34.6909 59.4878C34.7837 59.4158 34.8971 59.3953 35.0106 59.4056C35.0209 59.3233 35.0621 59.2514 35.124 59.1897C35.1343 59.1795 35.1446 59.1692 35.1549 59.1589C35.0828 59.1383 35.0209 59.0972 34.959 59.0458C34.9487 59.0664 34.9384 59.0972 34.9178 59.1178C34.8043 59.2309 34.629 59.2309 34.5156 59.1178C34.4228 59.0253 34.4124 58.8917 34.464 58.7889C34.4228 58.7375 34.3918 58.6656 34.3712 58.6039C34.2887 58.6347 34.2165 58.645 34.1237 58.645ZM30.4421 58.5422C30.5453 58.5217 30.6587 58.532 30.7515 58.5628C30.7721 58.5217 30.7928 58.4806 30.8237 58.4497C30.6174 58.2442 30.5246 57.9256 30.6381 57.6275C30.7103 57.422 30.8649 57.2678 31.0506 57.1856C30.8546 57.0931 30.6896 56.9184 30.6071 56.7025C30.5762 56.61 30.5556 56.5175 30.5556 56.425C30.504 56.5792 30.4009 56.7025 30.2668 56.8053C30.2256 56.9286 30.1328 57.0314 30.0193 57.0828C30.1224 57.1034 30.2153 57.1547 30.2874 57.2267C30.504 57.4425 30.504 57.7817 30.2874 57.9872C30.2668 58.0078 30.2462 58.0284 30.2256 58.0386C30.2668 58.0592 30.3184 58.09 30.3493 58.1208C30.4628 58.2442 30.4937 58.4086 30.4421 58.5422ZM24.6981 55.2225L25.1106 54.1639L25.1724 54.0097C25.1209 53.9275 25.059 53.8453 24.9662 53.7734C24.8528 53.6911 24.729 53.6295 24.5949 53.6089C24.2959 53.5575 23.9865 53.6603 23.7803 53.907C23.4915 54.2667 23.5534 54.7909 23.9143 55.0786C24.1515 55.2534 24.4403 55.3047 24.6981 55.2225Z" fill="url(#paint1_linear_361_34)"/>
<defs>
<linearGradient id="paint0_linear_361_34" x1="53.0167" y1="56.692" x2="191.623" y2="56.692" gradientUnits="userSpaceOnUse">
<stop stop-color="#F9DBA2"/>
<stop offset="0.2348" stop-color="#FAE3B0"/>
<stop offset="0.3623" stop-color="#E8CFA0"/>
<stop offset="0.5527" stop-color="#F0D2A0"/>
<stop offset="0.7809" stop-color="#FAEDD1"/>
<stop offset="0.9607" stop-color="#F8E1B9"/>
</linearGradient>
<linearGradient id="paint1_linear_361_34" x1="9.3109" y1="57.4195" x2="43.3061" y2="57.4195" gradientUnits="userSpaceOnUse">
<stop offset="0.011236" stop-color="#FBEFCF"/>
<stop offset="1" stop-color="#F9DBA2"/>
</linearGradient>
</defs>
</svg>
