<svg width="24" height="24" viewBox="0 0 24 24" fill="none" xmlns="http://www.w3.org/2000/svg">
<path d="M21.99 7.15999C21.898 9.18699 20.47 11.96 17.71 15.483C14.857 19.161 12.44 21 10.462 21C9.237 21 8.202 19.878 7.356 17.641C6.792 15.586 6.229 13.531 5.659 11.481C5.032 9.24399 4.359 8.12199 3.634 8.12199C3.479 8.12199 2.927 8.45199 1.989 9.10199L1 7.83699C2.035 6.93099 3.06 6.03199 4.066 5.12699C5.446 3.94199 6.488 3.32199 7.178 3.25899C8.811 3.10599 9.818 4.20999 10.198 6.58399C10.606 9.13999 10.888 10.734 11.049 11.354C11.521 13.478 12.039 14.537 12.602 14.537C13.039 14.537 13.701 13.849 14.581 12.471C15.461 11.093 15.932 10.046 15.996 9.32799C16.122 8.13799 15.651 7.54599 14.581 7.54599C14.081 7.54599 13.563 7.65999 13.028 7.88799C14.058 4.53499 16.03 2.90599 18.941 3.00299C21.098 3.05999 22.116 4.44899 21.99 7.15899V7.15999Z" fill="white"/>
</svg>
